<?xml version="1.0" encoding="UTF-8"?>
<svg version="1.1" xmlns="http://www.w3.org/2000/svg" width="1024" height="1024">
<path d="M0 0 C0.9354364 0.00182281 1.8708728 0.00364563 2.83465576 0.00552368 C59.43858244 0.19030713 125.46031231 14.78462043 170.82421875 50.62890625 C173.16090205 52.4370041 175.56375869 54.13788856 177.98095703 55.83618164 C187.93974051 62.84396863 197.23591173 70.44022922 206.11767578 78.77124023 C208.83930634 81.34373159 208.83930634 81.34373159 212 83.3125 C212 83.9725 212 84.6325 212 85.3125 C212.928125 85.68375 212.928125 85.68375 213.875 86.0625 C216.40358627 87.54990369 216.71839004 88.74928009 218 91.3125 C218.61746094 91.61542969 219.23492188 91.91835938 219.87109375 92.23046875 C222.22970191 93.42924757 223.37124801 94.6050136 225.0625 96.625 C225.65546875 97.32238281 226.2484375 98.01976562 226.859375 98.73828125 C228.02815581 100.14380416 229.19630622 101.5498559 230.36132812 102.95849609 C231.34552049 104.14745551 232.33179638 105.33469308 233.32006836 106.52026367 C234.30836831 107.70709664 235.29105345 108.89862963 236.26782227 110.0949707 C237.46833241 111.53818019 238.72958716 112.93042567 240 114.3125 C240.66 114.3125 241.32 114.3125 242 114.3125 C242.07734375 114.85003906 242.1546875 115.38757813 242.234375 115.94140625 C243.27864565 119.17544851 245.22574626 121.57218253 247.25 124.25 C262.48699435 145.03383179 274.32527845 167.49086945 284 191.3125 C284.29003906 192.0226123 284.58007812 192.73272461 284.87890625 193.46435547 C295.44353764 219.60161079 301.64779111 248.23873411 304 276.3125 C304.10957031 277.44558594 304.21914063 278.57867187 304.33203125 279.74609375 C311.33963779 363.55706796 282.37365733 443.46179142 229 507.3125 C228.32453125 508.12460937 227.6490625 508.93671875 226.953125 509.7734375 C226.32921875 510.50820313 225.7053125 511.24296875 225.0625 512 C224.51722656 512.64324219 223.97195313 513.28648437 223.41015625 513.94921875 C222 515.3125 222 515.3125 220 515.3125 C219.78601563 515.85261719 219.57203125 516.39273438 219.3515625 516.94921875 C217.51368151 520.16285459 215.00349328 522.56192628 212.375 525.125 C211.83447998 525.65762451 211.29395996 526.19024902 210.73706055 526.73901367 C204.42783392 532.91482106 197.85123144 538.53550491 190.78515625 543.83203125 C188.88599673 545.20468068 188.88599673 545.20468068 188 547.3125 C186.40398987 548.21459268 184.80579907 549.11296339 183.19921875 549.99609375 C180.65399649 551.51961045 178.31861751 553.23086838 175.9375 555 C148.78858583 574.92143296 118.25827788 589.20591138 85.97631836 598.54760742 C84.81495361 598.8851001 83.65358887 599.22259277 82.45703125 599.5703125 C81.42553955 599.8605127 80.39404785 600.15071289 79.33129883 600.44970703 C76.83577295 601.07128447 76.83577295 601.07128447 76 603.3125 C74.85055908 603.28615479 73.70111816 603.25980957 72.5168457 603.23266602 C68.14485847 603.23560599 64.02453793 603.81686815 59.73046875 604.58984375 C58.96881912 604.72064835 58.20716949 604.85145294 57.42243958 604.98622131 C55.00965484 605.4012064 52.59850611 605.82481303 50.1875 606.25 C33.62500096 609.15349963 17.62287393 610.5019099 0.8125 610.875 C-1.01628402 610.91828387 -2.84506019 610.96190096 -4.67382812 611.00585938 C-9.11580418 611.11191501 -13.55786221 611.21346029 -18 611.3125 C-18 610.6525 -18 609.9925 -18 609.3125 C-18.64614258 609.33352783 -19.29228516 609.35455566 -19.95800781 609.3762207 C-27.39159062 609.51042715 -34.42425818 608.70368909 -41.75 607.5 C-42.8851001 607.32057861 -44.0202002 607.14115723 -45.18969727 606.95629883 C-52.62407294 605.76185767 -59.99599612 604.39147677 -67.33984375 602.73046875 C-70.09489082 602.08877053 -70.09489082 602.08877053 -73 603.3125 C-73.40259033 602.84787354 -73.80518066 602.38324707 -74.2199707 601.90454102 C-76.29433528 600.04924937 -77.80440106 599.55977077 -80.48046875 598.83984375 C-81.83724731 598.45832153 -81.83724731 598.45832153 -83.22143555 598.0690918 C-84.20023682 597.7987915 -85.17903809 597.52849121 -86.1875 597.25 C-110.70412943 590.11376779 -134.62011911 579.31725386 -156 565.3125 C-156.88631104 564.74063965 -156.88631104 564.74063965 -157.79052734 564.15722656 C-166.87392767 558.29376762 -175.54316651 552.04544051 -184 545.3125 C-184.92296875 544.58417969 -185.8459375 543.85585938 -186.796875 543.10546875 C-197.02493553 534.90232772 -206.48969883 525.89384043 -215.8125 516.6875 C-216.42971924 516.08333252 -217.04693848 515.47916504 -217.68286133 514.85668945 C-219.16170986 513.38079397 -220.58646814 511.85106691 -222 510.3125 C-222 509.6525 -222 508.9925 -222 508.3125 C-222.66 508.3125 -223.32 508.3125 -224 508.3125 C-225.453125 506.7578125 -225.453125 506.7578125 -227.25 504.4375 C-227.9615625 503.52097656 -228.673125 502.60445312 -229.40625 501.66015625 C-229.81230469 501.13309082 -230.21835937 500.60602539 -230.63671875 500.06298828 C-232.14370646 498.1279772 -233.67982059 496.21828981 -235.21875 494.30859375 C-257.82188605 466.0657879 -274.9547832 433.74013677 -286 399.3125 C-286.29648437 398.40048828 -286.59296875 397.48847656 -286.8984375 396.54882812 C-294.12077626 374.06389741 -298.40974824 350.87262203 -300 327.3125 C-300.10054687 325.96115967 -300.10054687 325.96115967 -300.203125 324.58251953 C-303.54215978 277.57115723 -297.04359602 226.0729049 -276.75854492 183.26220703 C-275.81870929 181.19520193 -275.81870929 181.19520193 -276 178.3125 C-275.34 178.3125 -274.68 178.3125 -274 178.3125 C-273.76796875 177.5184375 -273.5359375 176.724375 -273.296875 175.90625 C-265.12475339 153.2606118 -249.81958711 132.07636048 -235 113.3125 C-234.22140625 112.32121094 -233.4428125 111.32992187 -232.640625 110.30859375 C-219.50148448 93.93126079 -204.62272006 78.16803138 -188 65.3125 C-186.91241892 64.43693349 -185.82657257 63.55920915 -184.7421875 62.6796875 C-143.5837767 29.48159752 -92.26311006 9.05799756 -40 2.3125 C-39.33468262 2.22636444 -38.66936523 2.14022888 -37.98388672 2.05148315 C-25.30444299 0.45224699 -12.77280508 -0.05206578 0 0 Z M-50 41.3125 C-50.93166992 41.50295898 -51.86333984 41.69341797 -52.82324219 41.88964844 C-69.07873583 45.30936169 -84.54977515 50.23722314 -100 56.3125 C-100.76634766 56.61269043 -101.53269531 56.91288086 -102.32226562 57.22216797 C-119.59569572 64.10342047 -135.88192648 73.53243759 -151 84.3125 C-151.62116699 84.75013672 -152.24233398 85.18777344 -152.88232422 85.63867188 C-154.7275115 86.94898781 -156.55391758 88.28143802 -158.375 89.625 C-159.43460937 90.40488281 -160.49421875 91.18476563 -161.5859375 91.98828125 C-164.20300787 94.50795256 -164.76015133 95.74632903 -165 99.3125 C-165.58910156 99.09207031 -166.17820312 98.87164062 -166.78515625 98.64453125 C-169.00380671 98.0717045 -169.00380671 98.0717045 -170.68359375 99.32421875 C-171.26238281 99.87722656 -171.84117187 100.43023437 -172.4375 101 C-173.12585938 101.64453125 -173.81421875 102.2890625 -174.5234375 102.953125 C-175.34070313 103.73171875 -176.15796875 104.5103125 -177 105.3125 C-178.05222998 106.26833736 -179.1070862 107.22128881 -180.1640625 108.171875 C-186.17632381 113.59929616 -191.81061941 119.08305368 -197 125.3125 C-197.88560781 126.31593693 -198.77387339 127.31703134 -199.6640625 128.31640625 C-207.49896214 137.17066866 -214.45253498 146.47143491 -221 156.3125 C-221.45729492 156.99731445 -221.91458984 157.68212891 -222.38574219 158.38769531 C-259.99717349 215.44117677 -273.49088298 288.37143682 -260 355.3125 C-259.78569336 356.38113281 -259.57138672 357.44976563 -259.35058594 358.55078125 C-253.7395599 385.56864754 -244.55251604 411.27256024 -231 435.3125 C-230.11248047 436.9521875 -230.11248047 436.9521875 -229.20703125 438.625 C-219.69447121 455.88490275 -207.66714396 471.2974758 -194.328125 485.76171875 C-192.37060036 487.90645631 -190.49087787 490.08884457 -188.625 492.3125 C-180.8097969 501.28347257 -171.32886744 508.98698573 -162 516.3125 C-161.4229834 516.76737793 -160.8459668 517.22225586 -160.25146484 517.69091797 C-145.25547723 529.44346862 -129.30291378 539.32834087 -112 547.3125 C-110.84322754 547.84955566 -110.84322754 547.84955566 -109.66308594 548.39746094 C-46.43720287 577.42949725 27.69927866 581.25790471 93.1875 557.125 C117.36105393 547.84048711 140.32613482 535.92736268 161 520.3125 C161.5784668 519.87824707 162.15693359 519.44399414 162.75292969 518.99658203 C171.65858244 512.27436151 179.96901603 505.05416603 188 497.3125 C188.55606934 496.77834473 189.11213867 496.24418945 189.68505859 495.69384766 C197.00236439 488.62850074 203.75284771 481.35892156 210 473.3125 C210.84198798 472.24963548 211.68445404 471.18714955 212.52734375 470.125 C217.79145458 463.44267695 222.56152499 456.57359967 227 449.3125 C227.60070312 448.37664062 228.20140625 447.44078125 228.8203125 446.4765625 C244.29452882 422.10623801 254.63870426 396.16112827 262 368.3125 C262.49113281 366.46011719 262.49113281 366.46011719 262.9921875 364.5703125 C272.13669643 326.01253774 270.55057178 284.9061431 263 246.3125 C262.01 246.3125 261.02 246.3125 260 246.3125 C260.66 245.9825 261.32 245.6525 262 245.3125 C261.814375 243.5490625 261.814375 243.5490625 261.625 241.75 C261.55539062 241.08871094 261.48578125 240.42742187 261.4140625 239.74609375 C253.35655112 192.38921083 223.41062849 147.61822855 190 114.3125 C189.13503906 113.41273438 188.27007813 112.51296875 187.37890625 111.5859375 C180.68264114 104.65486209 173.6526203 98.52096256 165.93212891 92.75732422 C164.61379249 91.77148711 163.30117634 90.77796538 161.99365234 89.77783203 C134.85410405 69.03532617 87.99748692 39.91750591 52 42.3125 C52 41.9825 52 41.6525 52 41.3125 C18.5758514 34.99811424 -16.61552408 34.46676985 -50 41.3125 Z " fill="#ECAD50" transform="translate(509,196.6875)"/>
<path d="M0 0 C8.60411111 6.33901368 15.02558121 17.92547522 21.21142578 26.51757812 C22.96429323 28.95044138 24.72972804 31.37380279 26.49609375 33.796875 C27.58171174 35.30137481 28.66639008 36.80655324 29.75 38.3125 C30.50180542 39.34225952 30.50180542 39.34225952 31.26879883 40.39282227 C31.73181396 41.04307373 32.1948291 41.6933252 32.671875 42.36328125 C33.0750293 42.92313721 33.47818359 43.48299316 33.89355469 44.05981445 C37.20758294 49.8710639 37.281628 55.37554944 37.24050903 61.87081909 C37.24221788 62.86008176 37.24392673 63.84934443 37.24568737 64.86858475 C37.24897932 68.18053013 37.23798326 71.49227253 37.22705078 74.80419922 C37.2264866 77.17943822 37.22680335 79.55467758 37.22793579 81.92991638 C37.22845043 87.70836403 37.21978102 93.48674529 37.20706047 99.26517777 C37.19275142 105.99035786 37.1897691 112.71552858 37.18748413 119.44072177 C37.18310958 131.43347696 37.16980698 143.42620491 37.15087891 155.41894531 C37.1325139 167.06705591 37.11836043 178.7151591 37.10986328 190.36328125 C37.10933783 191.08157084 37.10881239 191.79986044 37.10827102 192.53991638 C37.1056609 196.1434537 37.10313349 199.74699107 37.10064721 203.35052848 C37.07992218 233.23370474 37.04455424 263.11684918 37 293 C32.78866447 294.02361309 28.83810136 294.11489283 24.51171875 294.09765625 C23.80852005 294.0962413 23.10532135 294.09482635 22.3808136 294.09336853 C20.14966456 294.08780109 17.91861836 294.07525475 15.6875 294.0625 C14.16862125 294.05748079 12.64974091 294.05291862 11.13085938 294.04882812 C7.42053988 294.03784236 3.71027999 294.02060034 0 294 C-0.13083908 267.92153363 -0.26124831 241.84306513 -0.39115143 215.76459408 C-0.451483 203.65482927 -0.51195311 191.54506519 -0.57275391 179.43530273 C-0.62577214 168.87553133 -0.6785258 158.31575865 -0.73096704 147.75598437 C-0.75872104 142.16916435 -0.78660392 136.58234505 -0.81480408 130.99552727 C-0.84139383 125.72692203 -0.86762729 120.45831513 -0.89359856 115.1897068 C-0.90314324 113.26577566 -0.91281323 111.34184514 -0.92262459 109.41791534 C-0.93176016 107.62388714 -0.94070479 105.82985795 -0.94944 104.03582776 C-0.95768936 102.35708505 -0.9664636 100.67834481 -0.97582245 98.99960792 C-0.99521448 95.16109854 -1.00013926 91.32372816 -0.97044373 87.48526192 C-0.96396104 86.43570976 -0.96396104 86.43570976 -0.95734739 85.36495453 C-0.9442123 83.4982009 -0.92513002 81.63149173 -0.90557098 79.76479435 C-0.8065253 77.0399307 -0.8065253 77.0399307 -2 75 C-1.505 73.515 -1.505 73.515 -1 72 C-1.99 72 -2.98 72 -4 72 C-4.81047126 98.02694086 -5.13209557 124.02272735 -5.06846237 150.06143379 C-5.05822234 154.83990151 -5.05492594 159.61837422 -5.05102539 164.39685059 C-5.04011354 176.43124484 -5.02046515 188.46561881 -5 200.5 C-4.9778447 213.61558286 -4.95740031 226.73115863 -4.94658184 239.84675646 C-4.94162643 245.50067218 -4.93181406 251.15455151 -4.91815186 256.80845261 C-4.91068835 260.30611291 -4.90737665 263.80376827 -4.9051857 267.30143547 C-4.90331741 268.91753881 -4.89972388 270.53364125 -4.89425278 272.1497364 C-4.88700867 274.35883978 -4.88600014 276.56786424 -4.88647461 278.77697754 C-4.884254 280.01038124 -4.88203339 281.24378494 -4.87974548 282.51456451 C-5.2144096 292.2144096 -5.2144096 292.2144096 -7 294 C-9.50924153 294.10087212 -11.99036384 294.13972032 -14.5 294.1328125 C-15.25087891 294.13376923 -16.00175781 294.13472595 -16.77539062 294.13571167 C-18.36588627 294.13639338 -19.95638467 294.13453972 -21.546875 294.13037109 C-23.98964655 294.12502267 -26.43223421 294.13031634 -28.875 294.13671875 C-30.41666707 294.13605797 -31.95833403 294.1347768 -33.5 294.1328125 C-34.23541016 294.13483673 -34.97082031 294.13686096 -35.72851562 294.13894653 C-40.88504839 294.11495161 -40.88504839 294.11495161 -42 293 C-43.40996512 280.25733572 -43.15482703 267.34831511 -43.16113281 254.54858398 C-43.16577169 252.33100809 -43.17079775 250.11343298 -43.17617798 247.89585876 C-43.189187 241.92132045 -43.19572231 235.9467933 -43.20018864 229.97224307 C-43.20313351 226.23529396 -43.20724053 222.49834782 -43.21169281 218.76140022 C-43.22532727 207.0548946 -43.23503349 195.34839531 -43.2388947 183.64188236 C-43.23933815 182.30121259 -43.23978471 180.96054282 -43.24023438 179.61987305 C-43.2404558 178.95487831 -43.24067723 178.28988356 -43.24090537 177.60473747 C-43.24486457 166.79842043 -43.26236601 155.99217034 -43.2855939 145.18587922 C-43.30931352 134.06036791 -43.32151167 122.93488106 -43.32293582 111.80934197 C-43.32398361 105.57463666 -43.32988816 99.34002651 -43.34775543 93.10534477 C-43.36420874 87.25210774 -43.36640494 81.39903779 -43.35761642 75.5457859 C-43.35684503 73.39916919 -43.36120227 71.25254355 -43.37107468 69.1059494 C-43.38376438 66.17508312 -43.37793381 63.24481167 -43.36749268 60.31394958 C-43.37554908 59.46589908 -43.38360548 58.61784857 -43.39190602 57.74409956 C-43.33146564 50.48633509 -41.20447954 45.36037308 -36.99609375 39.3984375 C-36.4249585 38.58463623 -35.85382324 37.77083496 -35.26538086 36.93237305 C-34.66218018 36.08843994 -34.05897949 35.24450684 -33.4375 34.375 C-32.81560791 33.49561768 -32.19371582 32.61623535 -31.55297852 31.71020508 C-27.19373641 25.58010854 -22.70208322 19.57307731 -18.05859375 13.65625 C-16.2919742 11.3767409 -14.62831254 9.06625224 -13 6.6875 C-12.01 5.3571875 -12.01 5.3571875 -11 4 C-10.34 4 -9.68 4 -9 4 C-9 3.34 -9 2.68 -9 2 C-5.50938172 -0.32707885 -4.10679319 -0.48715787 0 0 Z " fill="#CBC6BE" transform="translate(514,284)"/>
<path d="M0 0 C1.17801458 -0.0083016 1.17801458 -0.0083016 2.37982744 -0.0167709 C5.01407286 -0.03039541 7.64737376 -0.01539895 10.28160095 -0.00050354 C12.16892907 -0.00428604 14.05625441 -0.00978551 15.943573 -0.01687622 C21.0715909 -0.03085616 26.19927423 -0.01964364 31.32727361 -0.00316501 C36.68838988 0.01066682 42.04948635 0.00422762 47.41061401 0.0007019 C56.41323755 -0.00200146 65.41572786 0.01148709 74.4183197 0.03465271 C84.83507701 0.06127128 95.25161162 0.06300744 105.66839129 0.05126435 C115.67971787 0.04049595 125.69096369 0.04666574 135.70228386 0.06081963 C139.96739543 0.06658676 144.23244804 0.06649106 148.4975605 0.06175423 C153.51676417 0.0569919 158.53572307 0.06705517 163.55488014 0.08870888 C165.39999313 0.09428679 167.24512959 0.09473288 169.09024429 0.08975601 C171.60283615 0.08382724 174.11467353 0.09626131 176.62719727 0.11352539 C177.73058987 0.10451032 177.73058987 0.10451032 178.85627323 0.09531313 C183.76367244 0.15691812 183.76367244 0.15691812 186.17185116 1.86137295 C188.25663565 5.03195439 188.5433957 7.93794721 187.84776306 11.64573669 C186.00817403 18.03531518 182.95996282 22.94818625 177.43370056 26.75120544 C172.33006989 29.55562472 166.96233436 30.61159624 161.25010681 31.50120544 C161.25010681 30.84120544 161.25010681 30.18120544 161.25010681 29.50120544 C159.71795186 29.74511867 159.71795186 29.74511867 158.15484428 29.99395943 C154.63174797 30.45162824 151.32154421 30.62301693 147.77430725 30.61714172 C146.51556793 30.61732803 145.25682861 30.61751434 143.95994568 30.6177063 C142.58286999 30.61269898 141.2057948 30.60755213 139.82872009 30.60227966 C138.36447697 30.60031845 136.9002333 30.59873653 135.43598938 30.59750366 C130.64743244 30.59136856 125.85894309 30.57413335 121.07041931 30.55589294 C119.41665024 30.55009717 117.76288106 30.54433076 116.10911179 30.53859329 C109.22897962 30.51394255 102.34886941 30.48643694 95.46878242 30.45124626 C85.63253227 30.40100802 75.79656072 30.36761533 65.96018422 30.35795772 C59.02905762 30.34980002 52.09816197 30.32260803 45.16715419 30.28135121 C41.03371264 30.25722865 36.90062686 30.24126996 32.76710892 30.24561691 C28.87781609 30.24926843 24.98934292 30.22921899 21.1002388 30.19143867 C19.67854583 30.18165024 18.25676512 30.18021701 16.83506012 30.18806648 C8.48838877 30.22852466 1.99493933 29.75774692 -4.74989319 24.50120544 C-6.90614319 22.18479919 -6.90614319 22.18479919 -8.24989319 19.93870544 C-8.71395569 19.19491638 -9.17801819 18.45112732 -9.65614319 17.68479919 C-11.82949402 13.34585949 -12.18186837 9.3393275 -11.74989319 4.50120544 C-8.57300398 -0.02548399 -5.1546569 -0.06751148 0 0 Z " fill="#C9C5BD" transform="translate(422.74989318847656,583.4987945556641)"/>
<path d="M0 0 C11.55 0 23.1 0 35 0 C35.96633601 3.86534404 36.09102809 6.76586931 36.03417969 10.72460938 C36.02629425 11.39176468 36.01840881 12.05891998 36.01028442 12.74629211 C35.99312608 14.19061209 35.9739242 15.63490893 35.95290375 17.07917786 C35.91082046 20.15054394 35.88737035 23.22196202 35.86287308 26.29351044 C35.8171466 32.0085996 35.76403893 37.72335351 35.67773438 43.43798828 C35.61835437 47.41723539 35.58337678 51.3960494 35.56455231 55.37568665 C35.55280799 56.89083016 35.53199108 58.40593165 35.50191498 59.92082214 C35.46090425 62.03954629 35.45102511 64.15631975 35.44824219 66.27539062 C35.43412292 67.48022095 35.42000366 68.68505127 35.40545654 69.9263916 C35.72682038 73.18997524 35.72682038 73.18997524 38.43560791 75.3013916 C39.2818573 75.86193237 40.12810669 76.42247314 41 77 C45.8005608 82.7725262 46.74024963 88.54442283 46.4140625 95.91796875 C45.48276551 102.84998128 42.11622019 107.75546887 37.02734375 112.45703125 C29.23446576 118.38802702 20.51992135 119.07112778 11 118 C3.57475725 116.20177795 -3.14145992 112.5405469 -7.28125 105.96484375 C-10.54392512 99.35792664 -12.26228804 91.98059645 -9.9375 84.8125 C-8.10943562 80.65703884 -5.39015843 77.02186824 -2 74 C-1.34 74 -0.68 74 0 74 C0 49.58 0 25.16 0 0 Z " fill="#CAC4BC" transform="translate(493,619)"/>
<path d="M0 0 C1.79575549 3.59151098 2.24993323 4.56423677 2.24609566 8.25597763 C2.25007775 9.10344016 2.25405985 9.95090269 2.25816262 10.8240459 C2.24942409 12.21314666 2.24942409 12.21314666 2.24050903 13.63031006 C2.24221788 14.61786388 2.24392673 15.6054177 2.24568737 16.62289739 C2.24898878 19.94105425 2.23796773 23.25901012 2.22705078 26.57714844 C2.22648681 28.95209244 2.22680295 31.32703679 2.22793579 33.70198059 C2.2284511 39.48738658 2.21976836 45.27272643 2.20706047 51.0581173 C2.19276794 57.78982287 2.18977054 64.52151901 2.18748413 71.25323763 C2.18310672 83.25819454 2.16979639 95.26312426 2.15087891 107.26806641 C2.13252129 118.92984888 2.1183642 130.59162397 2.10986328 142.25341797 C2.10907511 143.33164053 2.10907511 143.33164053 2.10827102 144.43164536 C2.10566095 148.03772395 2.10313353 151.64380259 2.10064721 155.24988127 C2.07991329 185.16660655 2.04453786 215.0833001 2 245 C-2.21133553 246.02361309 -6.16189864 246.11489283 -10.48828125 246.09765625 C-11.19147995 246.0962413 -11.89467865 246.09482635 -12.6191864 246.09336853 C-14.85033544 246.08780109 -17.08138164 246.07525475 -19.3125 246.0625 C-20.83137875 246.05748079 -22.35025909 246.05291862 -23.86914062 246.04882812 C-27.57946012 246.03784236 -31.28972001 246.02060034 -35 246 C-35.13083908 219.92153363 -35.26124831 193.84306513 -35.39115143 167.76459408 C-35.451483 155.65482927 -35.51195311 143.54506519 -35.57275391 131.43530273 C-35.62577214 120.87553133 -35.6785258 110.31575865 -35.73096704 99.75598437 C-35.75872104 94.16916435 -35.78660392 88.58234505 -35.81480408 82.99552727 C-35.84139383 77.72692203 -35.86762729 72.45831513 -35.89359856 67.1897068 C-35.90314324 65.26577566 -35.91281323 63.34184514 -35.92262459 61.41791534 C-35.93176016 59.62388714 -35.94070479 57.82985795 -35.94944 56.03582776 C-35.95768936 54.35708505 -35.9664636 52.67834481 -35.97582245 50.99960792 C-35.99521448 47.16109854 -36.00013926 43.32372816 -35.97044373 39.48526192 C-35.96612194 38.78556048 -35.96180015 38.08585904 -35.95734739 37.36495453 C-35.9442123 35.4982009 -35.92513002 33.63149173 -35.90557098 31.76479435 C-35.8065253 29.0399307 -35.8065253 29.0399307 -37 27 C-36.67 26.01 -36.34 25.02 -36 24 C-36.99 23.67 -37.98 23.34 -39 23 C-38.01 22.67 -37.02 22.34 -36 22 C-33.40038346 25.89942481 -33.72825656 29.15307226 -33.75949097 33.67485046 C-33.75778212 34.57171171 -33.75607327 35.46857295 -33.75431263 36.3926118 C-33.7510079 39.40985206 -33.76203763 42.42687189 -33.77294922 45.4440918 C-33.77351312 47.60214228 -33.77319719 49.76019315 -33.77206421 51.91824341 C-33.77148887 57.78774668 -33.78327243 63.65716871 -33.79721212 69.52665305 C-33.80968938 75.65658392 -33.81088761 81.78651652 -33.81326294 87.91645813 C-33.81948656 99.52927192 -33.8359093 111.14204819 -33.85596192 122.75484544 C-33.8782935 135.97352165 -33.88930745 149.19219962 -33.89935279 162.41088998 C-33.92027476 189.60728152 -33.95586931 216.80363708 -34 244 C-22.78 244 -11.56 244 0 244 C0 163.48 0 82.96 0 0 Z " fill="#B6B0A8" transform="translate(549,332)"/>
<path d="M0 0 C1.9375 0.375 1.9375 0.375 4 1 C5.64901135 4.29802271 5.13267352 7.96777339 5.12025452 11.59255981 C5.12110894 12.49265018 5.12196337 13.39274055 5.12284368 14.32010639 C5.12449865 17.35421189 5.11897682 20.38826283 5.11352539 23.42236328 C5.1132435 25.59011839 5.1134013 27.7578736 5.1139679 29.92562866 C5.11425578 35.8261568 5.10836045 41.72666477 5.10139394 47.62718821 C5.09515896 53.78782456 5.09455649 59.94846132 5.09336853 66.10910034 C5.09025564 77.78214104 5.08204282 89.45517241 5.07201904 101.12820899 C5.0608566 114.41457949 5.05534712 127.70094973 5.05032361 140.987324 C5.03986017 168.32488784 5.02226154 195.6624434 5 223 C4.67 223 4.34 223 4 223 C3.86915863 197.05191746 3.73874929 171.10383278 3.60884857 145.15574551 C3.54851801 133.10651485 3.48804824 121.05728493 3.42724609 109.00805664 C3.37422644 98.50102297 3.32147272 87.993988 3.26903296 77.48695141 C3.24127992 71.92807706 3.21339737 66.36920344 3.18519592 60.81033134 C3.15860453 55.56799095 3.13237125 50.32564887 3.10640144 45.08330536 C3.09685741 43.16904956 3.08718747 41.25479438 3.07737541 39.34053993 C3.06823925 37.55553159 3.05929463 35.77052225 3.05056 33.9855119 C3.0423101 32.31474952 3.03353577 30.64398964 3.02417755 28.9732331 C3.00475508 25.14538071 2.9999191 21.31867154 3.02955627 17.49086189 C3.03387806 16.79135038 3.03819985 16.09183888 3.04265261 15.37113005 C3.05579174 13.5033937 3.07487333 11.63570177 3.09442902 9.76802158 C3.19372992 7.04041101 3.19372992 7.04041101 2 5 C2.33 4.01 2.66 3.02 3 2 C2.01 1.67 1.02 1.34 0 1 C0 0.67 0 0.34 0 0 Z " fill="#AAA299" transform="translate(510,354)"/>
<path d="M0 0 C13.37740543 -0.52007192 26.41304355 0.25240999 39.6875 1.8125 C40.41475281 1.89536255 41.14200562 1.9782251 41.89129639 2.06359863 C50.46525959 3.05324608 58.74086986 4.38924792 67 7 C67 7.33 67 7.66 67 8 C50.38389402 8.26800171 50.38389402 8.26800171 46.16723633 6.02514648 C43.73962922 4.87683937 41.72315045 4.52142634 39.0625 4.18359375 C38.09376953 4.05960205 37.12503906 3.93561035 36.12695312 3.80786133 C35.09505859 3.68564209 34.06316406 3.56342285 33 3.4375 C31.94232422 3.30819092 30.88464844 3.17888184 29.79492188 3.0456543 C19.87937597 1.8863187 9.97401901 1.319963 0 1 C0 0.67 0 0.34 0 0 Z " fill="#DAA75B" transform="translate(512,233)"/>
<path d="M0 0 C0 3 0 3 -2.37890625 5.63671875 C-3.43345333 6.66054108 -4.49508734 7.67709814 -5.5625 8.6875 C-6.66866459 9.7596613 -7.77283669 10.83388213 -8.875 11.91015625 C-9.41253906 12.43496582 -9.95007813 12.95977539 -10.50390625 13.50048828 C-13.02489106 16.02723253 -15.32107152 18.73075802 -17.59765625 21.4765625 C-19 23 -19 23 -22 25 C-22.99 25 -23.98 25 -25 25 C-25.66 26.32 -26.32 27.64 -27 29 C-28.32 28.67 -29.64 28.34 -31 28 C-30.17757812 27.31035156 -29.35515625 26.62070312 -28.5078125 25.91015625 C-18.65288855 17.62430823 -8.99817879 9.22438999 0 0 Z " fill="#DCA858" transform="translate(704,686)"/>
<path d="M0 0 C0.33 0.66 0.66 1.32 1 2 C2.27875 2.103125 3.5575 2.20625 4.875 2.3125 C9.9400684 2.74942283 13.88997354 4.52652213 18.421875 6.74609375 C20.91026961 7.9563584 23.42009417 9.00237455 26 10 C26 10.66 26 11.32 26 12 C27.32 12.66 28.64 13.32 30 14 C24.90156943 13.31745148 20.47999581 11.16922536 15.8125 9.125 C9.28723914 6.31484662 2.8863456 3.80625458 -4 2 C-2.68 1.34 -1.36 0.68 0 0 Z " fill="#E2AC58" transform="translate(596,245)"/>
<path d="M0 0 C0.33 0 0.66 0 1 0 C0.62265298 9.07519588 -1.48533829 17.33318919 -4 26 C-4.66 26 -5.32 26 -6 26 C-6.33 26.66 -6.66 27.32 -7 28 C-6.31697126 22.58609855 -5.22293698 17.36322421 -3.9375 12.0625 C-3.75123047 11.28326172 -3.56496094 10.50402344 -3.37304688 9.70117188 C-2.91818991 7.80010303 -2.4594938 5.89995343 -2 4 C-1.34 4 -0.68 4 0 4 C0 2.68 0 1.36 0 0 Z " fill="#E7B057" transform="translate(774,552)"/>
<path d="M0 0 C11.34432997 -0.06954971 22.66186532 0.13606591 34 0.5 C35.56509724 0.54840172 37.13020141 0.59657974 38.6953125 0.64453125 C42.46362613 0.76045742 46.23183455 0.8793571 50 1 C50 1.33 50 1.66 50 2 C37.13 2.33 24.26 2.66 11 3 C11 2.34 11 1.68 11 1 C7.37 1 3.74 1 0 1 C0 0.67 0 0.34 0 0 Z " fill="#CC9B5C" transform="translate(480,805)"/>
<path d="M0 0 C0.33 0 0.66 0 1 0 C0.56901343 8.96452064 -1.69889434 17.37352947 -4 26 C-4.33 26 -4.66 26 -5 26 C-5.43230491 18.65081658 -3.81774185 12.09784913 -2 5 C-1.34 5 -0.68 5 0 5 C0 3.35 0 1.7 0 0 Z " fill="#DFA854" transform="translate(807,558)"/>
<path d="M0 0 C-2.70482125 2.70482125 -5.82543681 3.5076736 -9.375 4.6875 C-10.04789063 4.92533203 -10.72078125 5.16316406 -11.4140625 5.40820312 C-17.53946634 7.46407193 -17.53946634 7.46407193 -21 6 C-20.01 6 -19.02 6 -18 6 C-18 5.34 -18 4.68 -18 4 C-16.1291122 3.32187886 -14.25305707 2.6580054 -12.375 2 C-11.33085938 1.62875 -10.28671875 1.2575 -9.2109375 0.875 C-5.98225494 -0.00483564 -3.32755706 -0.15988262 0 0 Z " fill="#DEA954" transform="translate(617,787)"/>
<path d="M0 0 C2.52827282 3.13024254 4.20542002 6.41084003 6 10 C6.66 10.66 7.32 11.32 8 12 C8.625 14.625 8.625 14.625 9 17 C8.34 17.33 7.68 17.66 7 18 C5.82006797 15.94414903 4.65621545 13.88163459 3.5 11.8125 C2.8503125 10.66394531 2.200625 9.51539063 1.53125 8.33203125 C0.06830321 5.14862918 -0.36140832 3.42692535 0 0 Z " fill="#E2AC56" transform="translate(272,621)"/>
<path d="M0 0 C6.81987029 0.43300764 11.91643021 1.90787824 18 5 C18 5.66 18 6.32 18 7 C18.66 7.33 19.32 7.66 20 8 C15.15888235 7.41161801 11.03928805 5.92346884 6.625 3.9375 C5.98433594 3.65583984 5.34367187 3.37417969 4.68359375 3.08398438 C3.11970341 2.39540579 1.55946059 1.69855289 0 1 C0 0.67 0 0.34 0 0 Z " fill="#DDA956" transform="translate(388,780)"/>
<path d="M0 0 C0.66796875 1.7109375 0.66796875 1.7109375 1 4 C-0.07421875 6.2890625 -0.07421875 6.2890625 -1.6875 8.625 C-2.46673828 9.78902344 -2.46673828 9.78902344 -3.26171875 10.9765625 C-5.0573331 13.0667383 -6.46998621 13.97476565 -9 15 C-8.58016074 10.10187531 -6.47121495 8.305919 -3 5 C-1.94712186 3.36622358 -0.9272999 1.70818403 0 0 Z " fill="#E0AC59" transform="translate(736,645)"/>
<path d="M0 0 C-3.08809695 1.76462683 -4.23312136 2 -8 2 C-8 2.66 -8 3.32 -8 4 C-9.41199578 4.39222105 -10.82992764 4.76311059 -12.25 5.125 C-13.03890625 5.33382812 -13.8278125 5.54265625 -14.640625 5.7578125 C-17.4203071 6.04314411 -18.65887549 5.44977894 -21 4 C-18.43923903 3.32595716 -15.87673417 2.660586 -13.3125 2 C-12.59126953 1.80921875 -11.87003906 1.6184375 -11.12695312 1.421875 C-7.33149039 0.45134572 -3.95384561 -0.24955239 0 0 Z " fill="#DCA856" transform="translate(450,203)"/>
<path d="M0 0 C1.9375 0.375 1.9375 0.375 4 1 C5.2263757 3.45275141 5.11415314 5.0505781 5.09765625 7.7890625 C5.09282227 9.20058594 5.09282227 9.20058594 5.08789062 10.640625 C5.07951172 11.62546875 5.07113281 12.6103125 5.0625 13.625 C5.05798828 14.61757813 5.05347656 15.61015625 5.04882812 16.6328125 C5.03702145 19.0886016 5.020554 21.54427104 5 24 C4.34 24 3.68 24 3 24 C3.01160156 22.79601562 3.02320313 21.59203125 3.03515625 20.3515625 C3.04453434 18.77604321 3.05363452 17.20052225 3.0625 15.625 C3.07087891 14.8309375 3.07925781 14.036875 3.08789062 13.21875 C3.23040151 8.97607778 3.23040151 8.97607778 2 5 C2.33 4.01 2.66 3.02 3 2 C2.01 1.67 1.02 1.34 0 1 C0 0.67 0 0.34 0 0 Z " fill="#B1AAA1" transform="translate(510,354)"/>
<path d="M0 0 C0.66 0.33 1.32 0.66 2 1 C-0.25044599 3.44457392 -2.55801293 5.09902934 -5.4375 6.75 C-6.58025391 7.42289063 -6.58025391 7.42289063 -7.74609375 8.109375 C-10.33414736 9.13203743 -11.43633001 8.95772637 -14 8 C-11.7136988 6.63597957 -9.42178251 5.28365726 -7.125 3.9375 C-6.47402344 3.54755859 -5.82304687 3.15761719 -5.15234375 2.75585938 C-3.46934275 1.77555467 -1.73703801 0.88101568 0 0 Z " fill="#E0AC58" transform="translate(371,229)"/>
<path d="M0 0 C-2.09836004 1.03271642 -4.20390891 2.05083717 -6.3125 3.0625 C-7.48425781 3.63097656 -8.65601563 4.19945312 -9.86328125 4.78515625 C-13 6 -13 6 -16 5 C-12.40578054 1.40578054 -4.96370572 -2.48185286 0 0 Z " fill="#DFAA55" transform="translate(640,778)"/>
<path d="M0 0 C4.55105375 0.54179211 8.06386006 1.62000841 12 4 C12.33 4.99 12.66 5.98 13 7 C8.1725201 5.58707905 4.2837641 3.57025846 0 1 C0 0.67 0 0.34 0 0 Z " fill="#DEA955" transform="translate(365,768)"/>
<path d="M0 0 C4.8274799 1.41292095 8.7162359 3.42974154 13 6 C10.60042386 6.84119973 9.35077442 7.11193544 6.89453125 6.328125 C6.20746094 5.97234375 5.52039063 5.6165625 4.8125 5.25 C4.11769531 4.90453125 3.42289063 4.5590625 2.70703125 4.203125 C1 3 1 3 0 0 Z " fill="#E1AB55" transform="translate(648,230)"/>
<path d="M0 0 C1.53735983 3.07471966 2.44667892 5.24707137 3.1875 8.5 C3.36667969 9.2528125 3.54585937 10.005625 3.73046875 10.78125 C4.01801942 13.14833379 3.72248395 14.74544015 3 17 C3 16.34 3 15.68 3 15 C2.34 15 1.68 15 1 15 C0.67 10.05 0.34 5.1 0 0 Z " fill="#D6A356" transform="translate(803,421)"/>
<path d="M0 0 C0.66 0.33 1.32 0.66 2 1 C-0.25740623 3.33524782 -2.2805761 5.18705073 -5 7 C-6.32 6.67 -7.64 6.34 -9 6 C-6.03 4.02 -3.06 2.04 0 0 Z " fill="#DFAC57" transform="translate(350,241)"/>
<path d="M0 0 C-1.45264038 0.8638129 -2.9123163 1.71580454 -4.375 2.5625 C-5.59316406 3.27599609 -5.59316406 3.27599609 -6.8359375 4.00390625 C-7.55007813 4.33261719 -8.26421875 4.66132812 -9 5 C-9.66 4.67 -10.32 4.34 -11 4 C-7.51147246 0.16261971 -5.09041622 -1.48780432 0 0 Z " fill="#DDA955" transform="translate(656,770)"/>
<path d="M0 0 C3.8665284 3.222107 4.88059018 6.14922412 6 11 C3.66475218 8.74259377 1.81294927 6.7194239 0 4 C0 2.68 0 1.36 0 0 Z " fill="#DFAB57" transform="translate(257,664)"/>
<path d="M0 0 C0.33 0 0.66 0 1 0 C1.125 7.75 1.125 7.75 0 10 C-0.66 10 -1.32 10 -2 10 C-2.33 10.66 -2.66 11.32 -3 12 C-2.69106068 10.3743193 -2.3777305 8.74947252 -2.0625 7.125 C-1.88847656 6.22007812 -1.71445313 5.31515625 -1.53515625 4.3828125 C-1 2 -1 2 0 0 Z " fill="#DDA85A" transform="translate(225,398)"/>
<path d="M0 0 C0 4.24645065 -1.81750806 6.38524772 -4 10 C-4.6875 8.3125 -4.6875 8.3125 -5 6 C-2.73846154 1.36923077 -2.73846154 1.36923077 0 0 Z " fill="#DEA754" transform="translate(774,650)"/>
<path d="M0 0 C0.33 0.99 0.66 1.98 1 3 C1.66 3 2.32 3 3 3 C4.1577506 6.47325181 4.06866652 9.36067448 4 13 C1.12420019 8.68630028 0 5.19265239 0 0 Z " fill="#DBA858" transform="translate(220,583)"/>
<path d="M0 0 C-1.65 0.33 -3.3 0.66 -5 1 C-5 1.66 -5 2.32 -5 3 C-7.70879335 4.35439668 -10.00933268 4.06501451 -13 4 C-10.96180154 1.96180154 -9.70582202 1.32158941 -7.0625 0.3125 C-6.37285156 0.04050781 -5.68320312 -0.23148438 -4.97265625 -0.51171875 C-3 -1 -3 -1 0 0 Z " fill="#D9A858" transform="translate(409,215)"/>
<path d="M0 0 C3.5625 1.25 3.5625 1.25 7 3 C7.33 3.99 7.66 4.98 8 6 C4.08788267 4.84414715 1.1254959 3.64465038 -2 1 C-1.34 0.67 -0.68 0.34 0 0 Z " fill="#DFA954" transform="translate(380,774)"/>
<path d="M0 0 C1.27351308 2.54702616 0.80191925 3.4282945 0.0625 6.125 C-0.13214844 6.84945313 -0.32679688 7.57390625 -0.52734375 8.3203125 C-0.68332031 8.87460937 -0.83929688 9.42890625 -1 10 C-1.66 10 -2.32 10 -3 10 C-3.33 10.66 -3.66 11.32 -4 12 C-3.33501617 7.61110675 -1.81242323 4.0188515 0 0 Z " fill="#D3A35A" transform="translate(233,378)"/>
<path d="M0 0 C0.66 0.33 1.32 0.66 2 1 C0.35 2.98 -1.3 4.96 -3 7 C-4.32 6.67 -5.64 6.34 -7 6 C-4.69 4.02 -2.38 2.04 0 0 Z " fill="#DDA859" transform="translate(680,708)"/>
<path d="M0 0 C-4.95 1.485 -4.95 1.485 -10 3 C-9 0 -9 0 -6.6875 -1.3125 C-4 -2 -4 -2 0 0 Z " fill="#E1AA57" transform="translate(419,250)"/>
<path d="M0 0 C0.99 0.33 1.98 0.66 3 1 C3.33 3.64 3.66 6.28 4 9 C1.49701566 6.06171403 0.53069061 3.82097239 0 0 Z " fill="#DFAA56" transform="translate(232,618)"/>
<path d="M0 0 C3.0916909 2.52956528 3.90931332 5.22454612 5 9 C4.34 9 3.68 9 3 9 C0.56839395 5.63316085 0 4.26649636 0 0 Z " fill="#E1AC56" transform="translate(772,347)"/>
<path d="M0 0 C0.99 0.33 1.98 0.66 3 1 C1.87926138 1.83905565 0.75325453 2.67107831 -0.375 3.5 C-1.00148438 3.9640625 -1.62796875 4.428125 -2.2734375 4.90625 C-4 6 -4 6 -6 6 C-6 5.34 -6 4.68 -6 4 C-5.01 4 -4.02 4 -3 4 C-2.67 3.01 -2.34 2.02 -2 1 C-1.34 0.67 -0.68 0.34 0 0 Z " fill="#DCA954" transform="translate(683,750)"/>
<path d="M0 0 C3.91211733 1.15585285 6.8745041 2.35534962 10 5 C8.51793505 4.745504 7.03931385 4.47088238 5.5625 4.1875 C4.73878906 4.03667969 3.91507812 3.88585937 3.06640625 3.73046875 C2.38449219 3.48941406 1.70257813 3.24835937 1 3 C0.67 2.01 0.34 1.02 0 0 Z " fill="#DAA75B" transform="translate(387,739)"/>
<path d="M0 0 C0.66 0.33 1.32 0.66 2 1 C0.68 2.65 -0.64 4.3 -2 6 C-3.32 5.67 -4.64 5.34 -6 5 C-4.02 3.35 -2.04 1.7 0 0 Z " fill="#DCAA59" transform="translate(671,715)"/>
<path d="M0 0 C0.33 0 0.66 0 1 0 C1.19622241 4.21878192 0.80230168 7.17010894 -1 11 C-1.33 11 -1.66 11 -2 11 C-1.85892253 9.54119891 -1.71197585 8.08296449 -1.5625 6.625 C-1.48128906 5.81289063 -1.40007813 5.00078125 -1.31640625 4.1640625 C-1 2 -1 2 0 0 Z " fill="#E3AB55" transform="translate(795,600)"/>
<path d="M0 0 C0.33 0 0.66 0 1 0 C1.25 2.25 1.25 2.25 1 5 C-1 7.3125 -1 7.3125 -3 9 C-2.5020163 5.26512223 -2.12508244 3.18762365 0 0 Z " fill="#C5BDB4" transform="translate(607,597)"/>
<path d="M0 0 C0.33 0 0.66 0 1 0 C1 2.97 1 5.94 1 9 C0.34 9 -0.32 9 -1 9 C-1.33 9.66 -1.66 10.32 -2 11 C-1 3.57142857 -1 3.57142857 0 0 Z " fill="#D6A65D" transform="translate(769,569)"/>
<path d="M0 0 C3.37503669 1.1858237 5.64722731 2.27573689 8 5 C5.36 4.34 2.72 3.68 0 3 C0 2.01 0 1.02 0 0 Z " fill="#DAA858" transform="translate(368,728)"/>
<path d="M0 0 C2.64 1.65 5.28 3.3 8 5 C4 6 4 6 1.75 4.75 C1.1725 4.1725 0.595 3.595 0 3 C0 2.01 0 1.02 0 0 Z " fill="#E2AC56" transform="translate(357,720)"/>
<path d="M0 0 C2.52259061 1.97420135 2.9929808 2.96745642 3.6875 6.1875 C3.790625 7.115625 3.89375 8.04375 4 9 C0 4.5 0 4.5 0 0 Z " fill="#E1AC56" transform="translate(248,649)"/>
<path d="M0 0 C0.66 0.99 1.32 1.98 2 3 C0.625 5.5 0.625 5.5 -1 8 C-1.66 8 -2.32 8 -3 8 C-1.125 2.25 -1.125 2.25 0 0 Z " fill="#DDAA5A" transform="translate(749,622)"/>
<path d="M0 0 C0.66 0.99 1.32 1.98 2 3 C0.625 5.5 0.625 5.5 -1 8 C-1.66 8 -2.32 8 -3 8 C-1.125 2.25 -1.125 2.25 0 0 Z " fill="#E0AA57" transform="translate(243,357)"/>
<path d="M0 0 C2.97 0.99 5.94 1.98 9 3 C9 3.33 9 3.66 9 4 C6.36 3.67 3.72 3.34 1 3 C0.67 2.01 0.34 1.02 0 0 Z " fill="#DDA956" transform="translate(631,222)"/>
<path d="M0 0 C0.33 0 0.66 0 1 0 C1 2.31 1 4.62 1 7 C0.67 7 0.34 7 0 7 C0 4.69 0 2.38 0 0 Z " fill="#DBA554" transform="translate(208,467)"/>
<path d="M0 0 C1.98 0 3.96 0 6 0 C6 0.33 6 0.66 6 1 C4.02 1 2.04 1 0 1 C0 0.67 0 0.34 0 0 Z " fill="#D8A151" transform="translate(473,806)"/>
<path d="M0 0 C1.65 0 3.3 0 5 0 C5 0.33 5 0.66 5 1 C3.35 1 1.7 1 0 1 C0 0.67 0 0.34 0 0 Z " fill="#D79F50" transform="translate(544,806)"/>
<path d="M0 0 C0.99 0.33 1.98 0.66 3 1 C2.67 1.66 2.34 2.32 2 3 C1.34 2.01 0.68 1.02 0 0 Z " fill="#CEB795" transform="translate(490,733)"/>
<path d="M0 0 C0.66 0.33 1.32 0.66 2 1 C1.67 1.66 1.34 2.32 1 3 C0.34 2.34 -0.32 1.68 -1 1 C-0.67 0.67 -0.34 0.34 0 0 Z " fill="#CBB99D" transform="translate(483,722)"/>
<path d="M0 0 C0.33 0 0.66 0 1 0 C1 1.65 1 3.3 1 5 C0.67 5 0.34 5 0 5 C0 3.35 0 1.7 0 0 Z " fill="#CBB8A1" transform="translate(540,715)"/>
<path d="M0 0 C0.99 0.495 0.99 0.495 2 1 C2 1.66 2 2.32 2 3 C1.34 3 0.68 3 0 3 C0 2.01 0 1.02 0 0 Z " fill="#C9B9A8" transform="translate(540,707)"/>
<path d="M0 0 C1.65 0 3.3 0 5 0 C5 0.33 5 0.66 5 1 C3.35 1 1.7 1 0 1 C0 0.67 0 0.34 0 0 Z " fill="#D2CBC2" transform="translate(498,617)"/>
<path d="M0 0 C0.33 0 0.66 0 1 0 C1 1.65 1 3.3 1 5 C0.67 5 0.34 5 0 5 C0 3.35 0 1.7 0 0 Z " fill="#DDA555" transform="translate(208,529)"/>
<path d="M0 0 C0.33 1.32 0.66 2.64 1 4 C0.34 3.34 -0.32 2.68 -1 2 C-0.67 1.34 -0.34 0.68 0 0 Z " fill="#DCA453" transform="translate(209,457)"/>
<path d="M0 0 C0.33 0.99 0.66 1.98 1 3 C0.01 3.495 0.01 3.495 -1 4 C-0.67 2.68 -0.34 1.36 0 0 Z " fill="#DCA354" transform="translate(263,404)"/>
<path d="M0 0 C1.32 0.33 2.64 0.66 4 1 C3.01 1.495 3.01 1.495 2 2 C1.34 1.34 0.68 0.68 0 0 Z " fill="#DFA856" transform="translate(586,246)"/>
<path d="M0 0 C4 1 4 1 4 1 Z " fill="#D89F4F" transform="translate(483,807)"/>
<path d="M0 0 C0.99 0.33 1.98 0.66 3 1 C2.01 1.33 1.02 1.66 0 2 C0 1.34 0 0.68 0 0 Z " fill="#E1A955" transform="translate(648,728)"/>
<path d="M0 0 C0.99 0.33 1.98 0.66 3 1 C2.01 1 1.02 1 0 1 C0 0.67 0 0.34 0 0 Z " fill="#CCB89B" transform="translate(483,726)"/>
<path d="M0 0 C1 4 1 4 1 4 Z " fill="#C9C0B4" transform="translate(491,668)"/>
<path d="M0 0 C0.33 0.99 0.66 1.98 1 3 C0.34 2.67 -0.32 2.34 -1 2 C-0.67 1.34 -0.34 0.68 0 0 Z " fill="#D59E52" transform="translate(783,637)"/>
<path d="M0 0 C1 4 1 4 1 4 Z " fill="#DAA452" transform="translate(211,553)"/>
<path d="M0 0 C1 4 1 4 1 4 Z " fill="#DCA451" transform="translate(210,545)"/>
<path d="M0 0 C1 4 1 4 1 4 Z " fill="#DCA554" transform="translate(209,538)"/>
<path d="M0 0 C1 4 1 4 1 4 Z " fill="#DCA457" transform="translate(247,468)"/>
<path d="M0 0 C1 4 1 4 1 4 Z " fill="#DAA454" transform="translate(813,465)"/>
<path d="M0 0 C4 1 4 1 4 1 Z " fill="#DFA859" transform="translate(460,239)"/>
<path d="M0 0 C4 1 4 1 4 1 Z " fill="#E3AB58" transform="translate(466,238)"/>
<path d="M0 0 C3 1 3 1 3 1 Z " fill="#DBA352" transform="translate(533,807)"/>
<path d="M0 0 C0.66 0 1.32 0 2 0 C1.67 0.66 1.34 1.32 1 2 C0.67 1.34 0.34 0.68 0 0 Z " fill="#D8A050" transform="translate(587,798)"/>
<path d="M0 0 C0.66 0 1.32 0 2 0 C1.67 0.66 1.34 1.32 1 2 C0.67 1.34 0.34 0.68 0 0 Z " fill="#D59F50" transform="translate(615,789)"/>
<path d="M0 0 C3 1 3 1 3 1 Z " fill="#E2AA58" transform="translate(421,752)"/>
<path d="" fill="#C9C1B5" transform="translate(0,0)"/>
<path d="M0 0 C0.33 0.66 0.66 1.32 1 2 C0.34 1.67 -0.32 1.34 -1 1 C-0.67 0.67 -0.34 0.34 0 0 Z " fill="#D1CBC3" transform="translate(517,616)"/>
<path d="M0 0 C3 1 3 1 3 1 Z " fill="#C2B9AC" transform="translate(424,613)"/>
<path d="M0 0 C0.66 0 1.32 0 2 0 C1.67 0.66 1.34 1.32 1 2 C0.67 1.34 0.34 0.68 0 0 Z " fill="#DAA352" transform="translate(226,611)"/>
<path d="" fill="#DCA352" transform="translate(0,0)"/>
<path d="" fill="#DAA253" transform="translate(0,0)"/>
<path d="M0 0 C0.99 0.495 0.99 0.495 2 1 C1.01 1.495 1.01 1.495 0 2 C0 1.34 0 0.68 0 0 Z " fill="#DBA453" transform="translate(208,535)"/>
<path d="" fill="#DBA553" transform="translate(0,0)"/>
<path d="" fill="#DBA554" transform="translate(0,0)"/>
<path d="M0 0 C0.33 0.66 0.66 1.32 1 2 C0.34 1.67 -0.32 1.34 -1 1 C-0.67 0.67 -0.34 0.34 0 0 Z " fill="#DEA756" transform="translate(764,421)"/>
<path d="M0 0 C0.66 0 1.32 0 2 0 C1.67 0.66 1.34 1.32 1 2 C0.67 1.34 0.34 0.68 0 0 Z " fill="#E0A855" transform="translate(732,355)"/>
<path d="M0 0 C0.66 0.66 1.32 1.32 2 2 C1.34 2 0.68 2 0 2 C0 1.34 0 0.68 0 0 Z " fill="#DFA853" transform="translate(717,333)"/>
<path d="M0 0 C3 1 3 1 3 1 Z " fill="#DAA352" transform="translate(305,272)"/>
<path d="M0 0 C3 1 3 1 3 1 Z " fill="#E2A957" transform="translate(611,255)"/>
<path d="M0 0 C3 1 3 1 3 1 Z " fill="#E1A756" transform="translate(428,247)"/>
<path d="M0 0 C3 1 3 1 3 1 Z " fill="#E3AA56" transform="translate(556,239)"/>
<path d="M0 0 C3 1 3 1 3 1 Z " fill="#D8A453" transform="translate(621,216)"/>
<path d="M0 0 C2 1 2 1 2 1 Z " fill="#D9A24F" transform="translate(467,805)"/>
<path d="M0 0 C2 1 2 1 2 1 Z " fill="#D9A14F" transform="translate(411,791)"/>
<path d="" fill="#D6A150" transform="translate(0,0)"/>
<path d="M0 0 C2 1 2 1 2 1 Z " fill="#D7A050" transform="translate(612,790)"/>
<path d="M0 0 C2 1 2 1 2 1 Z " fill="#D5A150" transform="translate(630,783)"/>
<path d="" fill="#D6A050" transform="translate(0,0)"/>
<path d="" fill="#D6A151" transform="translate(0,0)"/>
<path d="M0 0 C2 1 2 1 2 1 Z " fill="#D8A152" transform="translate(370,773)"/>
<path d="M0 0 C2 1 2 1 2 1 Z " fill="#D6A152" transform="translate(662,767)"/>
<path d="M0 0 C2 1 2 1 2 1 Z " fill="#CEB99C" transform="translate(524,735)"/>
<path d="" fill="#E3AA55" transform="translate(0,0)"/>
<path d="M0 0 C2 1 2 1 2 1 Z " fill="#D6A253" transform="translate(304,727)"/>
<path d="" fill="#CBB99E" transform="translate(0,0)"/>
<path d="" fill="#CABAA3" transform="translate(0,0)"/>
<path d="M0 0 C2 1 2 1 2 1 Z " fill="#E0A856" transform="translate(672,712)"/>
<path d="M0 0 C2 1 2 1 2 1 Z " fill="#CABAA6" transform="translate(540,711)"/>
<path d="" fill="#CABCAB" transform="translate(0,0)"/>
<path d="M0 0 C2 1 2 1 2 1 Z " fill="#D8A253" transform="translate(749,691)"/>
<path d="M0 0 C2 1 2 1 2 1 Z " fill="#CAC0B1" transform="translate(490,690)"/>
<path d="" fill="#E1A753" transform="translate(0,0)"/>
<path d="" fill="#DAA152" transform="translate(0,0)"/>
<path d="" fill="#C9C1B6" transform="translate(0,0)"/>
<path d="" fill="#E0A754" transform="translate(0,0)"/>
<path d="" fill="#DAA351" transform="translate(0,0)"/>
<path d="" fill="#CCC5BA" transform="translate(0,0)"/>
<path d="" fill="#D8A452" transform="translate(0,0)"/>
<path d="M0 0 C2 1 2 1 2 1 Z " fill="#C4B9AD" transform="translate(592,614)"/>
<path d="M0 0 C2 1 2 1 2 1 Z " fill="#CDC5BD" transform="translate(563,614)"/>
<path d="M0 0 C2 1 2 1 2 1 Z " fill="#CCC5BC" transform="translate(555,614)"/>
<path d="M0 0 C2 1 2 1 2 1 Z " fill="#CEC7C0" transform="translate(547,614)"/>
<path d="M0 0 C2 1 2 1 2 1 Z " fill="#D0CAC1" transform="translate(531,614)"/>
<path d="M0 0 C2 1 2 1 2 1 Z " fill="#D0C9C1" transform="translate(507,614)"/>
<path d="M0 0 C2 1 2 1 2 1 Z " fill="#CDC6BD" transform="translate(459,614)"/>
<path d="M0 0 C2 1 2 1 2 1 Z " fill="#C3BAAE" transform="translate(427,614)"/>
<path d="" fill="#DEA855" transform="translate(0,0)"/>
<path d="" fill="#DAA253" transform="translate(0,0)"/>
<path d="" fill="#D9A053" transform="translate(0,0)"/>
<path d="" fill="#D9A351" transform="translate(0,0)"/>
<path d="" fill="#D9A353" transform="translate(0,0)"/>
<path d="M0 0 C2 1 2 1 2 1 Z " fill="#D0C8C0" transform="translate(544,579)"/>
<path d="" fill="#DBA251" transform="translate(0,0)"/>
<path d="" fill="#DEA654" transform="translate(0,0)"/>
<path d="" fill="#DBA553" transform="translate(0,0)"/>
<path d="M0 0 C2 1 2 1 2 1 Z " fill="#DAA455" transform="translate(811,549)"/>
<path d="" fill="#E2A853" transform="translate(0,0)"/>
<path d="" fill="#E0A855" transform="translate(0,0)"/>
<path d="" fill="#D0CDC5" transform="translate(0,0)"/>
<path d="" fill="#D9A455" transform="translate(0,0)"/>
<path d="" fill="#DBA256" transform="translate(0,0)"/>
<path d="" fill="#DCA556" transform="translate(0,0)"/>
<path d="M0 0 C2 1 2 1 2 1 Z " fill="#DBA554" transform="translate(812,460)"/>
<path d="" fill="#DBA654" transform="translate(0,0)"/>
<path d="M0 0 C2 1 2 1 2 1 Z " fill="#DDA653" transform="translate(252,441)"/>
<path d="" fill="#DCA453" transform="translate(0,0)"/>
<path d="" fill="#DCA453" transform="translate(0,0)"/>
<path d="" fill="#DBA354" transform="translate(0,0)"/>
<path d="" fill="#DEA755" transform="translate(0,0)"/>
<path d="" fill="#D8A156" transform="translate(0,0)"/>
<path d="" fill="#DEA653" transform="translate(0,0)"/>
<path d="" fill="#DDA754" transform="translate(0,0)"/>
<path d="" fill="#DDA456" transform="translate(0,0)"/>
<path d="" fill="#E1A856" transform="translate(0,0)"/>
<path d="M0 0 C2 1 2 1 2 1 Z " fill="#C6BCAC" transform="translate(476,321)"/>
<path d="" fill="#CABFB1" transform="translate(0,0)"/>
<path d="" fill="#DEA750" transform="translate(0,0)"/>
<path d="M0 0 C2 1 2 1 2 1 Z " fill="#C8B89F" transform="translate(510,282)"/>
<path d="M0 0 C2 1 2 1 2 1 Z " fill="#E2A955" transform="translate(364,278)"/>
<path d="M0 0 C2 1 2 1 2 1 Z " fill="#E0A757" transform="translate(629,263)"/>
<path d="M0 0 C2 1 2 1 2 1 Z " fill="#DDA658" transform="translate(390,263)"/>
<path d="M0 0 C2 1 2 1 2 1 Z " fill="#E0A956" transform="translate(607,253)"/>
<path d="M0 0 C2 1 2 1 2 1 Z " fill="#E1AB57" transform="translate(602,251)"/>
<path d="M0 0 C2 1 2 1 2 1 Z " fill="#D59F55" transform="translate(336,248)"/>
<path d="" fill="#E3AB59" transform="translate(0,0)"/>
<path d="M0 0 C2 1 2 1 2 1 Z " fill="#E2AA58" transform="translate(442,243)"/>
<path d="M0 0 C2 1 2 1 2 1 Z " fill="#E4AA58" transform="translate(545,237)"/>
<path d="" fill="#D9A252" transform="translate(0,0)"/>
<path d="M0 0 C2 1 2 1 2 1 Z " fill="#DBA452" transform="translate(396,216)"/>
<path d="M0 0 C2 1 2 1 2 1 Z " fill="#D6A253" transform="translate(598,208)"/>
<path d="M0 0 C2 1 2 1 2 1 Z " fill="#DCA352" transform="translate(418,208)"/>
<path d="M0 0 C2 1 2 1 2 1 Z " fill="#D9A352" transform="translate(565,200)"/>
<path d="M0 0 C2 1 2 1 2 1 Z " fill="#DDA351" transform="translate(472,197)"/>
<path d="" fill="#342B19" transform="translate(0,0)"/>
<path d="" fill="#3B301B" transform="translate(0,0)"/>
<path d="" fill="#372B1B" transform="translate(0,0)"/>
<path d="" fill="#43351F" transform="translate(0,0)"/>
<path d="" fill="#352A1A" transform="translate(0,0)"/>
<path d="" fill="#41341E" transform="translate(0,0)"/>
<path d="" fill="#372B1B" transform="translate(0,0)"/>
<path d="" fill="#3D311F" transform="translate(0,0)"/>
<path d="" fill="#453720" transform="translate(0,0)"/>
<path d="" fill="#2C2617" transform="translate(0,0)"/>
<path d="" fill="#2F2817" transform="translate(0,0)"/>
<path d="" fill="#322818" transform="translate(0,0)"/>
<path d="" fill="#473820" transform="translate(0,0)"/>
<path d="" fill="#493A21" transform="translate(0,0)"/>
<path d="" fill="#342C1A" transform="translate(0,0)"/>
<path d="" fill="#302818" transform="translate(0,0)"/>
<path d="" fill="#3A2F1A" transform="translate(0,0)"/>
<path d="" fill="#3F331E" transform="translate(0,0)"/>
<path d="" fill="#2D2716" transform="translate(0,0)"/>
<path d="" fill="#322917" transform="translate(0,0)"/>
<path d="" fill="#3B301C" transform="translate(0,0)"/>
<path d="" fill="#302818" transform="translate(0,0)"/>
<path d="" fill="#2F2717" transform="translate(0,0)"/>
<path d="" fill="#302817" transform="translate(0,0)"/>
<path d="" fill="#332918" transform="translate(0,0)"/>
<path d="" fill="#3E321E" transform="translate(0,0)"/>
<path d="" fill="#4A3B21" transform="translate(0,0)"/>
<path d="" fill="#514126" transform="translate(0,0)"/>
<path d="" fill="#554427" transform="translate(0,0)"/>
<path d="" fill="#382C1B" transform="translate(0,0)"/>
<path d="" fill="#2F2818" transform="translate(0,0)"/>
<path d="" fill="#2E2717" transform="translate(0,0)"/>
<path d="" fill="#302618" transform="translate(0,0)"/>
<path d="" fill="#332918" transform="translate(0,0)"/>
<path d="" fill="#332B17" transform="translate(0,0)"/>
<path d="" fill="#41351F" transform="translate(0,0)"/>
<path d="" fill="#41351F" transform="translate(0,0)"/>
<path d="" fill="#524122" transform="translate(0,0)"/>
<path d="" fill="#564527" transform="translate(0,0)"/>
<path d="" fill="#45381F" transform="translate(0,0)"/>
<path d="" fill="#2E2616" transform="translate(0,0)"/>
<path d="" fill="#2F2717" transform="translate(0,0)"/>
<path d="" fill="#302817" transform="translate(0,0)"/>
<path d="" fill="#352A18" transform="translate(0,0)"/>
<path d="" fill="#3B2F1B" transform="translate(0,0)"/>
<path d="" fill="#3F321D" transform="translate(0,0)"/>
<path d="" fill="#46381F" transform="translate(0,0)"/>
<path d="" fill="#5A4928" transform="translate(0,0)"/>
<path d="" fill="#4B3B22" transform="translate(0,0)"/>
<path d="" fill="#362D19" transform="translate(0,0)"/>
<path d="" fill="#2C2516" transform="translate(0,0)"/>
<path d="" fill="#392F1C" transform="translate(0,0)"/>
<path d="" fill="#47381F" transform="translate(0,0)"/>
<path d="" fill="#524024" transform="translate(0,0)"/>
<path d="" fill="#4D3E23" transform="translate(0,0)"/>
<path d="" fill="#312917" transform="translate(0,0)"/>
<path d="" fill="#483920" transform="translate(0,0)"/>
<path d="" fill="#2F2718" transform="translate(0,0)"/>
<path d="" fill="#3C321D" transform="translate(0,0)"/>
<path d="" fill="#3A2D1B" transform="translate(0,0)"/>
<path d="" fill="#2D2515" transform="translate(0,0)"/>
<path d="" fill="#846536" transform="translate(0,0)"/>
<path d="" fill="#302817" transform="translate(0,0)"/>
<path d="" fill="#674F2C" transform="translate(0,0)"/>
<path d="" fill="#896B3A" transform="translate(0,0)"/>
<path d="" fill="#795F33" transform="translate(0,0)"/>
<path d="" fill="#BF924B" transform="translate(0,0)"/>
<path d="" fill="#332918" transform="translate(0,0)"/>
<path d="" fill="#DAA14E" transform="translate(0,0)"/>
<path d="" fill="#342B17" transform="translate(0,0)"/>
<path d="" fill="#D7A150" transform="translate(0,0)"/>
<path d="" fill="#D69F51" transform="translate(0,0)"/>
<path d="" fill="#DAA24E" transform="translate(0,0)"/>
<path d="" fill="#D6A152" transform="translate(0,0)"/>
<path d="" fill="#D59E52" transform="translate(0,0)"/>
<path d="" fill="#D9A14E" transform="translate(0,0)"/>
<path d="" fill="#D09D4F" transform="translate(0,0)"/>
<path d="" fill="#D7A051" transform="translate(0,0)"/>
<path d="" fill="#D39E52" transform="translate(0,0)"/>
<path d="" fill="#D7A153" transform="translate(0,0)"/>
<path d="" fill="#D8A251" transform="translate(0,0)"/>
<path d="" fill="#D5A052" transform="translate(0,0)"/>
<path d="" fill="#D49E52" transform="translate(0,0)"/>
<path d="" fill="#D6A251" transform="translate(0,0)"/>
<path d="" fill="#D7A14E" transform="translate(0,0)"/>
<path d="" fill="#D29F50" transform="translate(0,0)"/>
<path d="" fill="#5B4728" transform="translate(0,0)"/>
<path d="" fill="#D59F52" transform="translate(0,0)"/>
<path d="" fill="#45371F" transform="translate(0,0)"/>
<path d="" fill="#D8A150" transform="translate(0,0)"/>
<path d="" fill="#E4AE5E" transform="translate(0,0)"/>
<path d="" fill="#E7B05C" transform="translate(0,0)"/>
<path d="" fill="#E7AF5C" transform="translate(0,0)"/>
<path d="" fill="#E4AE58" transform="translate(0,0)"/>
<path d="" fill="#E6AE57" transform="translate(0,0)"/>
<path d="" fill="#4D3E22" transform="translate(0,0)"/>
<path d="" fill="#D6A153" transform="translate(0,0)"/>
<path d="" fill="#D7A150" transform="translate(0,0)"/>
<path d="" fill="#D7A04E" transform="translate(0,0)"/>
<path d="" fill="#E5AE59" transform="translate(0,0)"/>
<path d="" fill="#E6AA59" transform="translate(0,0)"/>
<path d="" fill="#D6A353" transform="translate(0,0)"/>
<path d="" fill="#D6A251" transform="translate(0,0)"/>
<path d="" fill="#D7A253" transform="translate(0,0)"/>
<path d="" fill="#E3AB5A" transform="translate(0,0)"/>
<path d="" fill="#E2AA59" transform="translate(0,0)"/>
<path d="" fill="#D8A152" transform="translate(0,0)"/>
<path d="" fill="#D4A051" transform="translate(0,0)"/>
<path d="" fill="#D6A252" transform="translate(0,0)"/>
<path d="" fill="#E2AA58" transform="translate(0,0)"/>
<path d="" fill="#E5A957" transform="translate(0,0)"/>
<path d="" fill="#D69E4F" transform="translate(0,0)"/>
<path d="" fill="#D29E52" transform="translate(0,0)"/>
<path d="" fill="#D8A34F" transform="translate(0,0)"/>
<path d="" fill="#473822" transform="translate(0,0)"/>
<path d="" fill="#D8A350" transform="translate(0,0)"/>
<path d="" fill="#DCA24E" transform="translate(0,0)"/>
<path d="" fill="#D3B994" transform="translate(0,0)"/>
<path d="" fill="#DEA857" transform="translate(0,0)"/>
<path d="" fill="#E3AB56" transform="translate(0,0)"/>
<path d="" fill="#E1AA59" transform="translate(0,0)"/>
<path d="" fill="#CDB698" transform="translate(0,0)"/>
<path d="" fill="#D7A151" transform="translate(0,0)"/>
<path d="" fill="#D4A153" transform="translate(0,0)"/>
<path d="" fill="#CFB897" transform="translate(0,0)"/>
<path d="" fill="#E3AC56" transform="translate(0,0)"/>
<path d="" fill="#CEB698" transform="translate(0,0)"/>
<path d="" fill="#E5AC54" transform="translate(0,0)"/>
<path d="" fill="#CDB99B" transform="translate(0,0)"/>
<path d="" fill="#D1B798" transform="translate(0,0)"/>
<path d="" fill="#E2AB58" transform="translate(0,0)"/>
<path d="" fill="#E1AA59" transform="translate(0,0)"/>
<path d="" fill="#CDB699" transform="translate(0,0)"/>
<path d="" fill="#DBA04F" transform="translate(0,0)"/>
<path d="" fill="#CDBA9C" transform="translate(0,0)"/>
<path d="" fill="#CDB697" transform="translate(0,0)"/>
<path d="" fill="#D39F51" transform="translate(0,0)"/>
<path d="" fill="#D7A052" transform="translate(0,0)"/>
<path d="" fill="#CDB797" transform="translate(0,0)"/>
<path d="" fill="#CCB79A" transform="translate(0,0)"/>
<path d="" fill="#E4A854" transform="translate(0,0)"/>
<path d="" fill="#D4A154" transform="translate(0,0)"/>
<path d="" fill="#E8B050" transform="translate(0,0)"/>
<path d="" fill="#E4AC52" transform="translate(0,0)"/>
<path d="" fill="#E8AD53" transform="translate(0,0)"/>
<path d="" fill="#CAB89E" transform="translate(0,0)"/>
<path d="" fill="#E4AB54" transform="translate(0,0)"/>
<path d="" fill="#E3AA57" transform="translate(0,0)"/>
<path d="" fill="#D7A350" transform="translate(0,0)"/>
<path d="" fill="#E1A758" transform="translate(0,0)"/>
<path d="" fill="#534327" transform="translate(0,0)"/>
<path d="" fill="#D8A153" transform="translate(0,0)"/>
<path d="" fill="#3E321C" transform="translate(0,0)"/>
<path d="" fill="#E2AB57" transform="translate(0,0)"/>
<path d="" fill="#E2AA56" transform="translate(0,0)"/>
<path d="" fill="#DFA859" transform="translate(0,0)"/>
<path d="" fill="#D39F53" transform="translate(0,0)"/>
<path d="" fill="#E5AC53" transform="translate(0,0)"/>
<path d="" fill="#D7A151" transform="translate(0,0)"/>
<path d="" fill="#E2A955" transform="translate(0,0)"/>
<path d="" fill="#E1A955" transform="translate(0,0)"/>
<path d="" fill="#E2AB57" transform="translate(0,0)"/>
<path d="" fill="#E0A957" transform="translate(0,0)"/>
<path d="" fill="#D7A051" transform="translate(0,0)"/>
<path d="" fill="#D9A153" transform="translate(0,0)"/>
<path d="" fill="#D6A152" transform="translate(0,0)"/>
<path d="" fill="#D8A351" transform="translate(0,0)"/>
<path d="" fill="#C8BBAB" transform="translate(0,0)"/>
<path d="" fill="#CBBEAA" transform="translate(0,0)"/>
<path d="" fill="#C8BBA6" transform="translate(0,0)"/>
<path d="" fill="#E1AB56" transform="translate(0,0)"/>
<path d="" fill="#DAA252" transform="translate(0,0)"/>
<path d="" fill="#EAAC54" transform="translate(0,0)"/>
<path d="" fill="#C8BBAA" transform="translate(0,0)"/>
<path d="" fill="#C9BEAD" transform="translate(0,0)"/>
<path d="" fill="#CABDAF" transform="translate(0,0)"/>
<path d="" fill="#D8A252" transform="translate(0,0)"/>
<path d="" fill="#D5A053" transform="translate(0,0)"/>
<path d="" fill="#C9C0B0" transform="translate(0,0)"/>
<path d="" fill="#DCA24D" transform="translate(0,0)"/>
<path d="" fill="#DAA351" transform="translate(0,0)"/>
<path d="" fill="#CAC0B3" transform="translate(0,0)"/>
<path d="" fill="#CAC0B1" transform="translate(0,0)"/>
<path d="" fill="#E0A858" transform="translate(0,0)"/>
<path d="" fill="#D9A453" transform="translate(0,0)"/>
<path d="" fill="#E0A957" transform="translate(0,0)"/>
<path d="" fill="#D8A252" transform="translate(0,0)"/>
<path d="" fill="#E2A955" transform="translate(0,0)"/>
<path d="" fill="#D6A152" transform="translate(0,0)"/>
<path d="" fill="#D5A055" transform="translate(0,0)"/>
<path d="" fill="#E0A853" transform="translate(0,0)"/>
<path d="" fill="#E6AB51" transform="translate(0,0)"/>
<path d="" fill="#DAA452" transform="translate(0,0)"/>
<path d="" fill="#D8A253" transform="translate(0,0)"/>
<path d="" fill="#4C3C23" transform="translate(0,0)"/>
<path d="" fill="#D8A051" transform="translate(0,0)"/>
<path d="" fill="#E1A953" transform="translate(0,0)"/>
<path d="" fill="#E0A956" transform="translate(0,0)"/>
<path d="" fill="#DFA550" transform="translate(0,0)"/>
<path d="" fill="#DFA953" transform="translate(0,0)"/>
<path d="" fill="#DEA655" transform="translate(0,0)"/>
<path d="" fill="#E1A858" transform="translate(0,0)"/>
<path d="" fill="#DBA450" transform="translate(0,0)"/>
<path d="" fill="#D9A451" transform="translate(0,0)"/>
<path d="" fill="#E2A957" transform="translate(0,0)"/>
<path d="" fill="#DAA353" transform="translate(0,0)"/>
<path d="" fill="#D5A352" transform="translate(0,0)"/>
<path d="" fill="#DBA351" transform="translate(0,0)"/>
<path d="" fill="#E0A755" transform="translate(0,0)"/>
<path d="" fill="#E2AA56" transform="translate(0,0)"/>
<path d="" fill="#E1A851" transform="translate(0,0)"/>
<path d="" fill="#E4A855" transform="translate(0,0)"/>
<path d="" fill="#D9A352" transform="translate(0,0)"/>
<path d="" fill="#DBA454" transform="translate(0,0)"/>
<path d="" fill="#DCA456" transform="translate(0,0)"/>
<path d="" fill="#DAA351" transform="translate(0,0)"/>
<path d="" fill="#E3A956" transform="translate(0,0)"/>
<path d="" fill="#DBA454" transform="translate(0,0)"/>
<path d="" fill="#D9A451" transform="translate(0,0)"/>
<path d="" fill="#C9C3B8" transform="translate(0,0)"/>
<path d="" fill="#E0A655" transform="translate(0,0)"/>
<path d="" fill="#C2B3A1" transform="translate(0,0)"/>
<path d="" fill="#D6A052" transform="translate(0,0)"/>
<path d="" fill="#E1AA57" transform="translate(0,0)"/>
<path d="" fill="#D6A453" transform="translate(0,0)"/>
<path d="" fill="#E1AA54" transform="translate(0,0)"/>
<path d="" fill="#755C34" transform="translate(0,0)"/>
<path d="" fill="#DCA655" transform="translate(0,0)"/>
<path d="" fill="#DAA252" transform="translate(0,0)"/>
<path d="" fill="#DFA756" transform="translate(0,0)"/>
<path d="" fill="#D69F53" transform="translate(0,0)"/>
<path d="" fill="#D9A253" transform="translate(0,0)"/>
<path d="" fill="#E0A755" transform="translate(0,0)"/>
<path d="" fill="#D9A052" transform="translate(0,0)"/>
<path d="" fill="#4D3E25" transform="translate(0,0)"/>
<path d="" fill="#C3B7A8" transform="translate(0,0)"/>
<path d="" fill="#4D3E24" transform="translate(0,0)"/>
<path d="" fill="#D8A051" transform="translate(0,0)"/>
<path d="" fill="#E0A754" transform="translate(0,0)"/>
<path d="" fill="#CCC3BA" transform="translate(0,0)"/>
<path d="" fill="#CDC7BD" transform="translate(0,0)"/>
<path d="" fill="#D0C9C2" transform="translate(0,0)"/>
<path d="" fill="#D2CBC2" transform="translate(0,0)"/>
<path d="" fill="#D1CCC3" transform="translate(0,0)"/>
<path d="" fill="#D2CDC5" transform="translate(0,0)"/>
<path d="" fill="#D4D0C6" transform="translate(0,0)"/>
<path d="" fill="#D6D1C6" transform="translate(0,0)"/>
<path d="" fill="#CDC3BB" transform="translate(0,0)"/>
<path d="" fill="#CBC5BC" transform="translate(0,0)"/>
<path d="" fill="#D0C9C1" transform="translate(0,0)"/>
<path d="" fill="#C6BEB5" transform="translate(0,0)"/>
<path d="" fill="#DDA456" transform="translate(0,0)"/>
<path d="" fill="#C3BAAB" transform="translate(0,0)"/>
<path d="" fill="#C7BDB4" transform="translate(0,0)"/>
<path d="" fill="#CBC2B8" transform="translate(0,0)"/>
<path d="" fill="#CEC7BF" transform="translate(0,0)"/>
<path d="" fill="#CEC7BF" transform="translate(0,0)"/>
<path d="" fill="#D1C9C2" transform="translate(0,0)"/>
<path d="" fill="#D0CAC2" transform="translate(0,0)"/>
<path d="" fill="#D1C9C2" transform="translate(0,0)"/>
<path d="" fill="#CFC9C2" transform="translate(0,0)"/>
<path d="" fill="#D0CAC2" transform="translate(0,0)"/>
<path d="" fill="#CEC9C1" transform="translate(0,0)"/>
<path d="" fill="#CEC8BF" transform="translate(0,0)"/>
<path d="" fill="#CEC5BD" transform="translate(0,0)"/>
<path d="" fill="#CAC3B9" transform="translate(0,0)"/>
<path d="" fill="#DFA957" transform="translate(0,0)"/>
<path d="" fill="#C5BAAF" transform="translate(0,0)"/>
<path d="" fill="#E0A756" transform="translate(0,0)"/>
<path d="" fill="#E0A955" transform="translate(0,0)"/>
<path d="" fill="#E1A754" transform="translate(0,0)"/>
<path d="" fill="#BDB2A4" transform="translate(0,0)"/>
<path d="" fill="#BEB4A7" transform="translate(0,0)"/>
<path d="" fill="#BCB2A4" transform="translate(0,0)"/>
<path d="" fill="#D6A153" transform="translate(0,0)"/>
<path d="" fill="#D7A253" transform="translate(0,0)"/>
<path d="" fill="#514025" transform="translate(0,0)"/>
<path d="" fill="#BCB2A3" transform="translate(0,0)"/>
<path d="" fill="#BBB0A1" transform="translate(0,0)"/>
<path d="" fill="#E0A854" transform="translate(0,0)"/>
<path d="" fill="#D99F52" transform="translate(0,0)"/>
<path d="" fill="#DEA854" transform="translate(0,0)"/>
<path d="" fill="#DEA655" transform="translate(0,0)"/>
<path d="" fill="#DAA355" transform="translate(0,0)"/>
<path d="" fill="#BBB0A1" transform="translate(0,0)"/>
<path d="" fill="#D8A152" transform="translate(0,0)"/>
<path d="" fill="#584728" transform="translate(0,0)"/>
<path d="" fill="#C8C1B6" transform="translate(0,0)"/>
<path d="" fill="#CDC6BE" transform="translate(0,0)"/>
<path d="" fill="#D0CAC3" transform="translate(0,0)"/>
<path d="" fill="#D0C9C2" transform="translate(0,0)"/>
<path d="" fill="#CBC5B9" transform="translate(0,0)"/>
<path d="" fill="#CAC2B8" transform="translate(0,0)"/>
<path d="" fill="#C7BEB4" transform="translate(0,0)"/>
<path d="" fill="#DBA551" transform="translate(0,0)"/>
<path d="" fill="#DFA757" transform="translate(0,0)"/>
<path d="" fill="#CCC5BC" transform="translate(0,0)"/>
<path d="" fill="#CEC7BF" transform="translate(0,0)"/>
<path d="" fill="#D0C7C0" transform="translate(0,0)"/>
<path d="" fill="#CCC5BE" transform="translate(0,0)"/>
<path d="" fill="#DCA253" transform="translate(0,0)"/>
<path d="" fill="#CDC7C0" transform="translate(0,0)"/>
<path d="" fill="#DFA755" transform="translate(0,0)"/>
<path d="" fill="#D0CBC5" transform="translate(0,0)"/>
<path d="" fill="#D9A252" transform="translate(0,0)"/>
<path d="" fill="#E1A857" transform="translate(0,0)"/>
<path d="" fill="#E2AA55" transform="translate(0,0)"/>
<path d="" fill="#DAA454" transform="translate(0,0)"/>
<path d="" fill="#D4CEC7" transform="translate(0,0)"/>
<path d="" fill="#E1A756" transform="translate(0,0)"/>
<path d="" fill="#DBA253" transform="translate(0,0)"/>
<path d="" fill="#584729" transform="translate(0,0)"/>
<path d="" fill="#DEA856" transform="translate(0,0)"/>
<path d="" fill="#E0A555" transform="translate(0,0)"/>
<path d="" fill="#DCA353" transform="translate(0,0)"/>
<path d="" fill="#DDA453" transform="translate(0,0)"/>
<path d="" fill="#D3CEC7" transform="translate(0,0)"/>
<path d="" fill="#E1A852" transform="translate(0,0)"/>
<path d="" fill="#D1CAC3" transform="translate(0,0)"/>
<path d="" fill="#DFA85A" transform="translate(0,0)"/>
<path d="" fill="#DAA454" transform="translate(0,0)"/>
<path d="" fill="#D2CCC6" transform="translate(0,0)"/>
<path d="" fill="#DFA753" transform="translate(0,0)"/>
<path d="" fill="#DAA655" transform="translate(0,0)"/>
<path d="" fill="#CFCAC3" transform="translate(0,0)"/>
<path d="" fill="#D6CEC8" transform="translate(0,0)"/>
<path d="" fill="#E3A653" transform="translate(0,0)"/>
<path d="" fill="#D9A254" transform="translate(0,0)"/>
<path d="" fill="#DEA556" transform="translate(0,0)"/>
<path d="" fill="#DEA755" transform="translate(0,0)"/>
<path d="" fill="#D1CAC4" transform="translate(0,0)"/>
<path d="" fill="#D8A253" transform="translate(0,0)"/>
<path d="" fill="#DDA755" transform="translate(0,0)"/>
<path d="" fill="#A37F47" transform="translate(0,0)"/>
<path d="" fill="#B38F58" transform="translate(0,0)"/>
<path d="" fill="#D0CBC3" transform="translate(0,0)"/>
<path d="" fill="#D3CCC6" transform="translate(0,0)"/>
<path d="" fill="#D1CBC4" transform="translate(0,0)"/>
<path d="" fill="#DDA455" transform="translate(0,0)"/>
<path d="" fill="#DDA350" transform="translate(0,0)"/>
<path d="" fill="#DCA554" transform="translate(0,0)"/>
<path d="" fill="#D8A255" transform="translate(0,0)"/>
<path d="" fill="#E0A955" transform="translate(0,0)"/>
<path d="" fill="#DFA752" transform="translate(0,0)"/>
<path d="" fill="#675230" transform="translate(0,0)"/>
<path d="" fill="#DFA856" transform="translate(0,0)"/>
<path d="" fill="#D0CAC2" transform="translate(0,0)"/>
<path d="" fill="#E1A853" transform="translate(0,0)"/>
<path d="" fill="#D1CAC2" transform="translate(0,0)"/>
<path d="" fill="#564628" transform="translate(0,0)"/>
<path d="" fill="#A18E72" transform="translate(0,0)"/>
<path d="" fill="#E1A858" transform="translate(0,0)"/>
<path d="" fill="#E3AA57" transform="translate(0,0)"/>
<path d="" fill="#E0A854" transform="translate(0,0)"/>
<path d="" fill="#DDA655" transform="translate(0,0)"/>
<path d="" fill="#DBA455" transform="translate(0,0)"/>
<path d="" fill="#DDA556" transform="translate(0,0)"/>
<path d="" fill="#CFC9C3" transform="translate(0,0)"/>
<path d="" fill="#504127" transform="translate(0,0)"/>
<path d="" fill="#D9A454" transform="translate(0,0)"/>
<path d="" fill="#DFA654" transform="translate(0,0)"/>
<path d="" fill="#DEA656" transform="translate(0,0)"/>
<path d="" fill="#CFC9C4" transform="translate(0,0)"/>
<path d="" fill="#DAA453" transform="translate(0,0)"/>
<path d="" fill="#E0A654" transform="translate(0,0)"/>
<path d="" fill="#DEA751" transform="translate(0,0)"/>
<path d="" fill="#E1A754" transform="translate(0,0)"/>
<path d="" fill="#D9A154" transform="translate(0,0)"/>
<path d="" fill="#DFA755" transform="translate(0,0)"/>
<path d="" fill="#CFC9C3" transform="translate(0,0)"/>
<path d="" fill="#DEA755" transform="translate(0,0)"/>
<path d="" fill="#DEA856" transform="translate(0,0)"/>
<path d="" fill="#D8A555" transform="translate(0,0)"/>
<path d="" fill="#D2CBC4" transform="translate(0,0)"/>
<path d="" fill="#DCA855" transform="translate(0,0)"/>
<path d="" fill="#DBA554" transform="translate(0,0)"/>
<path d="" fill="#DAA351" transform="translate(0,0)"/>
<path d="" fill="#CFC7C1" transform="translate(0,0)"/>
<path d="" fill="#DFA755" transform="translate(0,0)"/>
<path d="" fill="#DFA754" transform="translate(0,0)"/>
<path d="" fill="#DEA756" transform="translate(0,0)"/>
<path d="" fill="#D6A253" transform="translate(0,0)"/>
<path d="" fill="#DFA454" transform="translate(0,0)"/>
<path d="" fill="#DCA556" transform="translate(0,0)"/>
<path d="" fill="#4E4126" transform="translate(0,0)"/>
<path d="" fill="#DEA555" transform="translate(0,0)"/>
<path d="" fill="#D9A555" transform="translate(0,0)"/>
<path d="" fill="#CFC8C1" transform="translate(0,0)"/>
<path d="" fill="#DDA557" transform="translate(0,0)"/>
<path d="" fill="#C29551" transform="translate(0,0)"/>
<path d="" fill="#DDA757" transform="translate(0,0)"/>
<path d="" fill="#DFA953" transform="translate(0,0)"/>
<path d="" fill="#DEA756" transform="translate(0,0)"/>
<path d="" fill="#E1A756" transform="translate(0,0)"/>
<path d="" fill="#D5A054" transform="translate(0,0)"/>
<path d="" fill="#E1A853" transform="translate(0,0)"/>
<path d="" fill="#E0A653" transform="translate(0,0)"/>
<path d="" fill="#CBC2B9" transform="translate(0,0)"/>
<path d="" fill="#D8A354" transform="translate(0,0)"/>
<path d="" fill="#D9A253" transform="translate(0,0)"/>
<path d="" fill="#E1A757" transform="translate(0,0)"/>
<path d="" fill="#E0A754" transform="translate(0,0)"/>
<path d="" fill="#493C23" transform="translate(0,0)"/>
<path d="" fill="#755E37" transform="translate(0,0)"/>
<path d="" fill="#BDAF9E" transform="translate(0,0)"/>
<path d="" fill="#6C5731" transform="translate(0,0)"/>
<path d="" fill="#DEA556" transform="translate(0,0)"/>
<path d="" fill="#E6A852" transform="translate(0,0)"/>
<path d="" fill="#D7A151" transform="translate(0,0)"/>
<path d="" fill="#E3A650" transform="translate(0,0)"/>
<path d="" fill="#E2A750" transform="translate(0,0)"/>
<path d="" fill="#DEA753" transform="translate(0,0)"/>
<path d="" fill="#DFA854" transform="translate(0,0)"/>
<path d="" fill="#E1A851" transform="translate(0,0)"/>
<path d="" fill="#E1A955" transform="translate(0,0)"/>
<path d="" fill="#DEA755" transform="translate(0,0)"/>
<path d="" fill="#DEA451" transform="translate(0,0)"/>
<path d="" fill="#D9A454" transform="translate(0,0)"/>
<path d="" fill="#D6A053" transform="translate(0,0)"/>
<path d="" fill="#DEA855" transform="translate(0,0)"/>
<path d="" fill="#DEA650" transform="translate(0,0)"/>
<path d="" fill="#4F4125" transform="translate(0,0)"/>
<path d="" fill="#DFAA55" transform="translate(0,0)"/>
<path d="" fill="#DDA651" transform="translate(0,0)"/>
<path d="" fill="#DFA655" transform="translate(0,0)"/>
<path d="" fill="#C5BBAF" transform="translate(0,0)"/>
<path d="" fill="#C0B9AF" transform="translate(0,0)"/>
<path d="" fill="#E4A852" transform="translate(0,0)"/>
<path d="" fill="#4B3D23" transform="translate(0,0)"/>
<path d="" fill="#D9A253" transform="translate(0,0)"/>
<path d="" fill="#C9BFAE" transform="translate(0,0)"/>
<path d="" fill="#C4B9A9" transform="translate(0,0)"/>
<path d="" fill="#D8A356" transform="translate(0,0)"/>
<path d="" fill="#DEA553" transform="translate(0,0)"/>
<path d="" fill="#DDA556" transform="translate(0,0)"/>
<path d="" fill="#D7A252" transform="translate(0,0)"/>
<path d="" fill="#524327" transform="translate(0,0)"/>
<path d="" fill="#DDA555" transform="translate(0,0)"/>
<path d="" fill="#D8A354" transform="translate(0,0)"/>
<path d="" fill="#C9BCAB" transform="translate(0,0)"/>
<path d="" fill="#CABFAE" transform="translate(0,0)"/>
<path d="" fill="#C7BDAF" transform="translate(0,0)"/>
<path d="" fill="#E0A856" transform="translate(0,0)"/>
<path d="" fill="#C8BBAE" transform="translate(0,0)"/>
<path d="" fill="#E0A654" transform="translate(0,0)"/>
<path d="" fill="#463921" transform="translate(0,0)"/>
<path d="" fill="#483C21" transform="translate(0,0)"/>
<path d="" fill="#E1A656" transform="translate(0,0)"/>
<path d="" fill="#E3A954" transform="translate(0,0)"/>
<path d="" fill="#58472A" transform="translate(0,0)"/>
<path d="" fill="#D6A252" transform="translate(0,0)"/>
<path d="" fill="#D9A150" transform="translate(0,0)"/>
<path d="" fill="#E3A854" transform="translate(0,0)"/>
<path d="" fill="#DBA452" transform="translate(0,0)"/>
<path d="" fill="#E0A552" transform="translate(0,0)"/>
<path d="" fill="#DFA855" transform="translate(0,0)"/>
<path d="" fill="#E5AA4F" transform="translate(0,0)"/>
<path d="" fill="#E1A955" transform="translate(0,0)"/>
<path d="" fill="#DFA852" transform="translate(0,0)"/>
<path d="" fill="#D9A456" transform="translate(0,0)"/>
<path d="" fill="#DBA356" transform="translate(0,0)"/>
<path d="" fill="#E2AA54" transform="translate(0,0)"/>
<path d="" fill="#CABEAC" transform="translate(0,0)"/>
<path d="" fill="#E1A954" transform="translate(0,0)"/>
<path d="" fill="#DBA450" transform="translate(0,0)"/>
<path d="" fill="#C7BBA5" transform="translate(0,0)"/>
<path d="" fill="#DAA34F" transform="translate(0,0)"/>
<path d="" fill="#E0A752" transform="translate(0,0)"/>
<path d="" fill="#DAA24F" transform="translate(0,0)"/>
<path d="" fill="#DEA856" transform="translate(0,0)"/>
<path d="" fill="#DBA252" transform="translate(0,0)"/>
<path d="" fill="#C9BBA0" transform="translate(0,0)"/>
<path d="" fill="#E3A854" transform="translate(0,0)"/>
<path d="" fill="#504027" transform="translate(0,0)"/>
<path d="" fill="#DCA757" transform="translate(0,0)"/>
<path d="" fill="#E2AA55" transform="translate(0,0)"/>
<path d="" fill="#E0A854" transform="translate(0,0)"/>
<path d="" fill="#E2A955" transform="translate(0,0)"/>
<path d="" fill="#E2AB59" transform="translate(0,0)"/>
<path d="" fill="#DDA54F" transform="translate(0,0)"/>
<path d="" fill="#DBA351" transform="translate(0,0)"/>
<path d="" fill="#DAA353" transform="translate(0,0)"/>
<path d="" fill="#E3A555" transform="translate(0,0)"/>
<path d="" fill="#DEA956" transform="translate(0,0)"/>
<path d="" fill="#DFA756" transform="translate(0,0)"/>
<path d="" fill="#DFAB56" transform="translate(0,0)"/>
<path d="" fill="#E2A754" transform="translate(0,0)"/>
<path d="" fill="#DFA856" transform="translate(0,0)"/>
<path d="" fill="#D7A353" transform="translate(0,0)"/>
<path d="" fill="#D8A352" transform="translate(0,0)"/>
<path d="" fill="#E1A953" transform="translate(0,0)"/>
<path d="" fill="#DEA959" transform="translate(0,0)"/>
<path d="" fill="#E1AB59" transform="translate(0,0)"/>
<path d="" fill="#E4AC57" transform="translate(0,0)"/>
<path d="" fill="#E2AB57" transform="translate(0,0)"/>
<path d="" fill="#DBA450" transform="translate(0,0)"/>
<path d="" fill="#DDA451" transform="translate(0,0)"/>
<path d="" fill="#DEAA54" transform="translate(0,0)"/>
<path d="" fill="#E0AA57" transform="translate(0,0)"/>
<path d="" fill="#DFAA57" transform="translate(0,0)"/>
<path d="" fill="#DBA653" transform="translate(0,0)"/>
<path d="" fill="#E0A85A" transform="translate(0,0)"/>
<path d="" fill="#E1A95A" transform="translate(0,0)"/>
<path d="" fill="#E3AA59" transform="translate(0,0)"/>
<path d="" fill="#DAA550" transform="translate(0,0)"/>
<path d="" fill="#DEA85C" transform="translate(0,0)"/>
<path d="" fill="#DAA452" transform="translate(0,0)"/>
<path d="" fill="#574629" transform="translate(0,0)"/>
<path d="" fill="#E2AA53" transform="translate(0,0)"/>
<path d="" fill="#E2AA5C" transform="translate(0,0)"/>
<path d="" fill="#E2AA58" transform="translate(0,0)"/>
<path d="" fill="#E0A959" transform="translate(0,0)"/>
<path d="" fill="#E2AA5B" transform="translate(0,0)"/>
<path d="" fill="#E3AB59" transform="translate(0,0)"/>
<path d="" fill="#DFA54C" transform="translate(0,0)"/>
<path d="" fill="#E4AC59" transform="translate(0,0)"/>
<path d="" fill="#DBA350" transform="translate(0,0)"/>
<path d="" fill="#DCA553" transform="translate(0,0)"/>
<path d="" fill="#DBA34F" transform="translate(0,0)"/>
<path d="" fill="#E5AB58" transform="translate(0,0)"/>
<path d="" fill="#E1AC5A" transform="translate(0,0)"/>
<path d="" fill="#E2AC5A" transform="translate(0,0)"/>
<path d="" fill="#E5AD56" transform="translate(0,0)"/>
<path d="" fill="#E7AD58" transform="translate(0,0)"/>
<path d="" fill="#E5AE5A" transform="translate(0,0)"/>
<path d="" fill="#E7AD5B" transform="translate(0,0)"/>
<path d="" fill="#E6AE5A" transform="translate(0,0)"/>
<path d="" fill="#D8A253" transform="translate(0,0)"/>
<path d="" fill="#DAA250" transform="translate(0,0)"/>
<path d="" fill="#DEA24E" transform="translate(0,0)"/>
<path d="" fill="#D9A353" transform="translate(0,0)"/>
<path d="" fill="#DAA353" transform="translate(0,0)"/>
<path d="" fill="#D9A353" transform="translate(0,0)"/>
<path d="" fill="#D9A352" transform="translate(0,0)"/>
<path d="" fill="#DEA454" transform="translate(0,0)"/>
<path d="" fill="#DAA351" transform="translate(0,0)"/>
<path d="" fill="#DCA354" transform="translate(0,0)"/>
<path d="" fill="#DBA351" transform="translate(0,0)"/>
<path d="" fill="#DAA350" transform="translate(0,0)"/>
<path d="" fill="#D8A453" transform="translate(0,0)"/>
<path d="" fill="#DCA353" transform="translate(0,0)"/>
<path d="" fill="#433721" transform="translate(0,0)"/>
<path d="" fill="#DDA451" transform="translate(0,0)"/>
<path d="" fill="#DAA454" transform="translate(0,0)"/>
<path d="" fill="#E0A651" transform="translate(0,0)"/>
<path d="" fill="#3C321E" transform="translate(0,0)"/>
<path d="" fill="#DCA552" transform="translate(0,0)"/>
<path d="" fill="#DFA752" transform="translate(0,0)"/>
<path d="" fill="#DEA551" transform="translate(0,0)"/>
<path d="" fill="#DFA953" transform="translate(0,0)"/>
<path d="" fill="#E2A751" transform="translate(0,0)"/>
<path d="" fill="#DDA452" transform="translate(0,0)"/>
<path d="" fill="#DBA352" transform="translate(0,0)"/>
<path d="" fill="#42341E" transform="translate(0,0)"/>
<path d="" fill="#463921" transform="translate(0,0)"/>
<path d="" fill="#8D6E3E" transform="translate(0,0)"/>
<path d="" fill="#7A6135" transform="translate(0,0)"/>
<path d="" fill="#342C1B" transform="translate(0,0)"/>
<path d="" fill="#3B2F1D" transform="translate(0,0)"/>
<path d="" fill="#5A482A" transform="translate(0,0)"/>
<path d="" fill="#3B321D" transform="translate(0,0)"/>
<path d="" fill="#322A18" transform="translate(0,0)"/>
<path d="" fill="#312A19" transform="translate(0,0)"/>
<path d="" fill="#302818" transform="translate(0,0)"/>
<path d="" fill="#302818" transform="translate(0,0)"/>
<path d="" fill="#342A19" transform="translate(0,0)"/>
<path d="" fill="#352B19" transform="translate(0,0)"/>
<path d="" fill="#3E311D" transform="translate(0,0)"/>
<path d="" fill="#4D3E24" transform="translate(0,0)"/>
<path d="" fill="#594527" transform="translate(0,0)"/>
<path d="" fill="#5F492C" transform="translate(0,0)"/>
<path d="" fill="#4C3D23" transform="translate(0,0)"/>
<path d="" fill="#3D331C" transform="translate(0,0)"/>
<path d="" fill="#544226" transform="translate(0,0)"/>
<path d="" fill="#5A4829" transform="translate(0,0)"/>
<path d="" fill="#322919" transform="translate(0,0)"/>
<path d="" fill="#473A21" transform="translate(0,0)"/>
<path d="" fill="#3F321E" transform="translate(0,0)"/>
<path d="" fill="#44351F" transform="translate(0,0)"/>
<path d="" fill="#352B1B" transform="translate(0,0)"/>
<path d="" fill="#574526" transform="translate(0,0)"/>
<path d="" fill="#41341E" transform="translate(0,0)"/>
<path d="" fill="#564428" transform="translate(0,0)"/>
<path d="" fill="#312919" transform="translate(0,0)"/>
<path d="" fill="#4F3E24" transform="translate(0,0)"/>
<path d="" fill="#362B19" transform="translate(0,0)"/>
<path d="" fill="#382E1A" transform="translate(0,0)"/>
<path d="" fill="#3F331C" transform="translate(0,0)"/>
<path d="" fill="#483920" transform="translate(0,0)"/>
<path d="" fill="#4B3C21" transform="translate(0,0)"/>
<path d="" fill="#4E3D24" transform="translate(0,0)"/>
<path d="" fill="#3F321D" transform="translate(0,0)"/>
<path d="" fill="#3A311B" transform="translate(0,0)"/>
<path d="" fill="#352C1A" transform="translate(0,0)"/>
<path d="" fill="#302719" transform="translate(0,0)"/>
<path d="" fill="#453720" transform="translate(0,0)"/>
<path d="" fill="#4F3E23" transform="translate(0,0)"/>
<path d="" fill="#3F331E" transform="translate(0,0)"/>
<path d="" fill="#322818" transform="translate(0,0)"/>
</svg>
